STARTFONT 2.1
COMMENT
COMMENT Converted from OpenType font "red_reg.otf" by "otf2bdf 3.0".
COMMENT
FONT -FreeType-Redaction 20-Medium-R-Normal--37-370-72-72-P-190-ISO10646-1
SIZE 37 72 72
FONTBOUNDINGBOX 41 45 -3 -10
STARTPROPERTIES 19
FOUNDRY "FreeType"
FAMILY_NAME "Redaction 20"
WEIGHT_NAME "Medium"
SLANT "R"
SETWIDTH_NAME "Normal"
ADD_STYLE_NAME ""
PIXEL_SIZE 37
POINT_SIZE 370
RESOLUTION_X 72
RESOLUTION_Y 72
SPACING "P"
AVERAGE_WIDTH 190
CHARSET_REGISTRY "ISO10646"
CHARSET_ENCODING "1"
FONT_ASCENT 33
FONT_DESCENT 11
COPYRIGHT "© 2019 MCKL. All Rights Reserved."
_OTF_FONTFILE "red_reg.otf"
_OTF_PSNAME "Redaction20-Regular"
ENDPROPERTIES
CHARS 346
STARTCHAR 0020
ENCODING 32
SWIDTH 243 0
DWIDTH 9 0
BBX 0 0 0 0
BITMAP
ENDCHAR
STARTCHAR 0021
ENCODING 33
SWIDTH 243 0
DWIDTH 9 0
BBX 5 26 2 1
BITMAP
70
F0
F0
70
70
70
70
60
60
60
20
20
20
20
20
40
00
00
00
00
00
00
F8
F8
F8
F8
ENDCHAR
STARTCHAR 0022
ENCODING 34
SWIDTH 405 0
DWIDTH 15 0
BBX 11 8 2 19
BITMAP
71C0
FBE0
FBE0
71C0
71C0
6180
2080
2080
ENDCHAR
STARTCHAR 0023
ENCODING 35
SWIDTH 729 0
DWIDTH 27 0
BBX 26 26 1 0
BITMAP
00080000
00081000
00101000
00101000
00103000
00302000
00306000
00206000
1FFFFFC0
00404000
00404000
0080C000
0080C000
00818000
00818000
00818000
01010000
FFFFFE00
01020000
02020000
02020000
02020000
04040000
04040000
04040000
04080000
ENDCHAR
STARTCHAR 0024
ENCODING 36
SWIDTH 513 0
DWIDTH 19 0
BBX 16 30 1 -2
BITMAP
0180
0180
0380
1FF0
399C
718E
618E
E19E
E18E
F184
F180
FD80
3F80
1FC0
1FF0
03FC
00FE
017E
018F
018F
018F
F187
F187
F18E
E18E
719C
3FF8
0380
0180
0180
ENDCHAR
STARTCHAR 0025
ENCODING 37
SWIDTH 783 0
DWIDTH 29 0
BBX 26 26 1 0
BITMAP
1F000E00
1B800C00
60C01800
60E01000
E0E03000
E0706000
E0706000
E070C000
E061C000
E0618000
60E30000
70C20000
31861E00
0F0C7180
000861C0
001861C0
0030C1C0
0070C1C0
0060C1C0
0040C1C0
0080C1C0
0180C1C0
030061C0
030061C0
02007180
0C001E00
ENDCHAR
STARTCHAR 0026
ENCODING 38
SWIDTH 729 0
DWIDTH 27 0
BBX 26 26 1 0
BITMAP
01FC0000
039E0000
060F0000
06070000
0E070000
0E070000
0E060000
0F0E0000
0F180000
07B00000
03C07F00
03C07F00
07E01E00
19F01800
30F01800
70781000
E07C3000
E03E6000
E01E6000
E00FC000
E00FC000
E007C000
F003F000
7806F800
7C0FFFC0
0FF07E00
ENDCHAR
STARTCHAR 0027
ENCODING 39
SWIDTH 243 0
DWIDTH 9 0
BBX 5 8 2 19
BITMAP
70
F8
F8
70
70
60
20
20
ENDCHAR
STARTCHAR 0028
ENCODING 40
SWIDTH 432 0
DWIDTH 16 0
BBX 12 35 2 -8
BITMAP
0030
00E0
01C0
0700
0700
0700
1E00
1C00
3C00
3800
3800
7800
7800
7800
F800
F800
F800
F800
F800
F800
7800
7800
7800
7800
3800
3800
3C00
3C00
0E00
0F00
0700
0380
01C0
00E0
0010
ENDCHAR
STARTCHAR 0029
ENCODING 41
SWIDTH 432 0
DWIDTH 16 0
BBX 12 35 1 -8
BITMAP
6000
3000
1800
0E00
0700
0700
0380
0380
03E0
01E0
01E0
00F0
00F0
00F0
00F0
00F0
00F0
00F0
00F0
00F0
00F0
00F0
00F0
00F0
01E0
01E0
03C0
0380
0380
0780
0700
1C00
1C00
3000
C000
ENDCHAR
STARTCHAR 002A
ENCODING 42
SWIDTH 432 0
DWIDTH 16 0
BBX 13 15 1 11
BITMAP
0300
0300
0300
8308
E318
3B70
1CC0
0C80
1CC0
3B70
E308
8308
0300
0300
0300
ENDCHAR
STARTCHAR 002B
ENCODING 43
SWIDTH 513 0
DWIDTH 19 0
BBX 17 16 1 4
BITMAP
008000
008000
008000
008000
008000
008000
008000
FFFF80
FFFF80
008000
008000
008000
008000
008000
008000
008000
ENDCHAR
STARTCHAR 002C
ENCODING 44
SWIDTH 243 0
DWIDTH 9 0
BBX 6 9 1 -5
BITMAP
78
7C
7C
2C
0C
18
10
20
C0
ENDCHAR
STARTCHAR 002D
ENCODING 45
SWIDTH 432 0
DWIDTH 16 0
BBX 13 2 1 11
BITMAP
FFF8
FFF8
ENDCHAR
STARTCHAR 002E
ENCODING 46
SWIDTH 243 0
DWIDTH 9 0
BBX 5 4 2 0
BITMAP
F8
F8
F8
F8
ENDCHAR
STARTCHAR 002F
ENCODING 47
SWIDTH 351 0
DWIDTH 13 0
BBX 16 35 -3 -9
BITMAP
0003
0003
0006
0004
0004
0008
0008
0018
0010
0030
0020
0020
0040
0040
00C0
00C0
0180
0100
0100
0200
0200
0600
0400
0C00
0800
0800
1000
1000
3000
2000
2000
4000
4000
C000
8000
ENDCHAR
STARTCHAR 0030
ENCODING 48
SWIDTH 594 0
DWIDTH 22 0
BBX 18 28 2 -1
BITMAP
00C000
07F000
07FC00
1C0E00
380F00
380780
380380
780380
7003C0
F003C0
F003C0
F003C0
F003C0
F003C0
F003C0
F003C0
F003C0
F003C0
F003C0
F00380
780380
780380
380380
3C0700
1C0E00
0E1C00
03F800
00C000
ENDCHAR
STARTCHAR 0031
ENCODING 49
SWIDTH 351 0
DWIDTH 13 0
BBX 11 26 1 0
BITMAP
1E00
FE00
1E00
0E00
0E00
0E00
0E00
0E00
0E00
0E00
0E00
0E00
0E00
0E00
0E00
0E00
0E00
0E00
0E00
0E00
0E00
0E00
0E00
0F00
1F00
FFE0
ENDCHAR
STARTCHAR 0032
ENCODING 50
SWIDTH 513 0
DWIDTH 19 0
BBX 17 26 1 0
BITMAP
1FF000
1FF800
603E00
E01E00
E00E00
F00E00
F00E00
E00E00
000E00
000E00
001C00
003800
003800
007000
006000
00C000
038000
038000
030000
0C0180
0C0100
180100
300700
6FFF00
7FFF00
FFFE00
ENDCHAR
STARTCHAR 0033
ENCODING 51
SWIDTH 513 0
DWIDTH 19 0
BBX 17 27 1 -1
BITMAP
3FFF80
7FFF00
7FFE00
600C00
600C00
C03000
007000
007000
00C000
018000
03F000
03F800
07FE00
001E00
000F00
000F00
000780
000780
000780
F00780
F00700
F00F00
E00E00
700E00
383C00
0FF000
018000
ENDCHAR
STARTCHAR 0034
ENCODING 52
SWIDTH 594 0
DWIDTH 22 0
BBX 20 27 1 0
BITMAP
000600
001E00
001E00
003E00
003C00
007800
007000
007000
01E000
018000
038200
030E00
060E00
0C0E10
180E30
100E70
300EF0
7FFFE0
FFFFE0
000E00
000E00
000E00
000E00
000E00
000E00
000F00
007FC0
ENDCHAR
STARTCHAR 0035
ENCODING 53
SWIDTH 513 0
DWIDTH 19 0
BBX 17 28 1 0
BITMAP
000100
000200
1FFE00
1FFE00
1BFE00
180000
180000
100000
100000
100000
100000
100000
1FF800
1FFE00
3FFE00
200F00
000F80
000F80
000780
000780
000780
700780
F80780
F00700
700E00
700E00
381E00
0FF000
ENDCHAR
STARTCHAR 0036
ENCODING 54
SWIDTH 567 0
DWIDTH 21 0
BBX 18 27 1 0
BITMAP
007000
01FC00
03FE00
0E0380
1C0380
1C01C0
1C07C0
3807C0
780180
780000
780000
F1FC00
F3FE00
F60F00
F807C0
F003C0
F003C0
7801C0
7801C0
7801C0
3801C0
3C01C0
3C01C0
1C0380
0E0700
070E00
01F800
ENDCHAR
STARTCHAR 0037
ENCODING 55
SWIDTH 486 0
DWIDTH 18 0
BBX 16 27 1 -1
BITMAP
FFFF
FFFF
FFFA
E006
C006
800C
0008
0018
0010
0030
0070
0060
0060
00C0
00C0
0180
0380
0380
0380
0700
0700
0E00
1E00
1E00
1E00
1E00
1C00
ENDCHAR
STARTCHAR 0038
ENCODING 56
SWIDTH 540 0
DWIDTH 20 0
BBX 18 27 1 0
BITMAP
03F800
0E3E00
1C0F00
380700
380780
380780
380780
3C0780
3C0F00
1E0E00
1FF800
07F000
03F000
0C7E00
1C3E00
380F00
700780
F003C0
E003C0
E003C0
F003C0
F003C0
780780
3C0700
1C0E00
07F800
004000
ENDCHAR
STARTCHAR 0039
ENCODING 57
SWIDTH 567 0
DWIDTH 21 0
BBX 18 27 1 0
BITMAP
008000
03F000
0FF800
1C0E00
380E00
380F00
700780
F00780
F003C0
F003C0
F003C0
7803C0
7803C0
7803C0
1C1DC0
1FF3C0
07E3C0
0003C0
0003C0
000380
780780
780700
780700
380E00
380E00
1C1C00
07F000
ENDCHAR
STARTCHAR 003A
ENCODING 58
SWIDTH 243 0
DWIDTH 9 0
BBX 5 18 2 0
BITMAP
F8
F8
F8
F8
F8
00
00
00
00
00
00
00
00
00
F8
F8
F8
F8
ENDCHAR
STARTCHAR 003B
ENCODING 59
SWIDTH 243 0
DWIDTH 9 0
BBX 6 23 1 -5
BITMAP
7C
7C
7C
7C
7C
00
00
00
00
00
00
00
00
00
78
7C
7C
2C
0C
18
10
20
80
ENDCHAR
STARTCHAR 003D
ENCODING 61
SWIDTH 513 0
DWIDTH 19 0
BBX 17 7 1 8
BITMAP
FFFF80
FFFF80
000000
000000
000000
FFFF80
FFFF80
ENDCHAR
STARTCHAR 003F
ENCODING 63
SWIDTH 432 0
DWIDTH 16 0
BBX 15 26 1 0
BITMAP
1FE0
3CF0
E03C
E01E
E01E
E00E
E00E
001E
001E
003C
0070
00F0
01E0
0380
0300
0200
0200
0200
0100
0000
0000
0000
0780
0780
0780
0780
ENDCHAR
STARTCHAR 0040
ENCODING 64
SWIDTH 756 0
DWIDTH 28 0
BBX 26 25 1 -4
BITMAP
007FF800
01C00C00
03800E00
04000300
0C000180
100781C0
101FF1C0
203870C0
607070C0
60E0E0C0
60E0E0C0
C3C1C0C0
C381C0C0
C381C1C0
C3838180
C3878100
C38D8200
63F3DC00
61F1F800
20000000
10000000
18000000
04000000
03003000
01FFC000
ENDCHAR
STARTCHAR 0041
ENCODING 65
SWIDTH 729 0
DWIDTH 27 0
BBX 27 27 0 0
BITMAP
00040000
00040000
00060000
000E0000
001F0000
001F0000
00370000
00378000
00378000
0067C000
0043C000
00C1E000
00C1E000
01C1E000
0180F000
0100F000
0100F800
03FFF800
06003800
06003800
0C003C00
0C003E00
0C003E00
18001F00
38001F00
7C001F00
FE007FE0
ENDCHAR
STARTCHAR 0042
ENCODING 66
SWIDTH 648 0
DWIDTH 24 0
BBX 22 26 1 0
BITMAP
FFFE00
FFFF80
1E01E0
1E01F0
1E00F0
1E0070
1E0070
1E0070
1E0070
1E00F0
1E01C0
1E0FC0
1FFF80
1E01F0
1E00F0
1E0078
1E007C
1E007C
1E007C
1E007C
1E007C
1E0078
1E0070
1E01F0
1C03E0
FFFF00
ENDCHAR
STARTCHAR 0043
ENCODING 67
SWIDTH 648 0
DWIDTH 24 0
BBX 22 26 1 0
BITMAP
00FF0C
03FFDC
07806C
0F007C
1E003C
3C001C
3C000C
7C000C
78000C
F80000
F00000
F00000
F00000
F00000
F00000
F80000
F80000
F80000
7C0000
7C0004
3C0008
1E0008
1F0030
0F8060
03E1C0
00FF00
ENDCHAR
STARTCHAR 0044
ENCODING 68
SWIDTH 729 0
DWIDTH 27 0
BBX 25 26 1 0
BITMAP
FFFC0000
FFFF8000
1E01F000
1E00F000
1E007800
1E003E00
1E001E00
1E001E00
1E000F00
1E000F00
1E000F80
1E000F80
1E000F80
1E000F80
1E000F80
1E000F00
1E000F00
1E000F00
1E000E00
1E001E00
1E003C00
1E007C00
1E00F000
1E01E000
3C07C000
FFFC0000
ENDCHAR
STARTCHAR 0045
ENCODING 69
SWIDTH 648 0
DWIDTH 24 0
BBX 22 26 1 0
BITMAP
FFFFF0
FFFFF8
1E0078
1E0038
1E0038
1E0018
1E0018
1E0008
1E0108
1E0100
1E0300
1E0700
1FFF00
1E0F00
1E0300
1E0300
1E0100
1E010C
1E000C
1E0008
1E0008
1E0008
1E0018
1E0078
1C00F8
FFFFF0
ENDCHAR
STARTCHAR 0046
ENCODING 70
SWIDTH 648 0
DWIDTH 24 0
BBX 21 26 1 0
BITMAP
FFFFF0
FFFFF0
1E0078
1E0038
1E0038
1E0018
1E0018
1E0008
1E0108
1E0100
1E0300
1E0700
1E0F00
1DFF00
1E0300
1E0300
1E0100
1E0100
1E0000
1E0000
1E0000
1E0000
1E0000
1E0000
1F0000
FFE000
ENDCHAR
STARTCHAR 0047
ENCODING 71
SWIDTH 756 0
DWIDTH 28 0
BBX 26 27 1 0
BITMAP
00080000
007F8600
01FFCE00
07807600
0F003E00
1E001E00
1C000E00
3C000E00
7C000E00
78000600
F8000000
F8000000
F8000000
F8000000
F800FFC0
F800FFC0
F8003F00
F8000E00
F8000E00
7C000E00
3C000E00
3C000E00
1E001600
1F800E00
07803E00
03F0FE00
007FC200
ENDCHAR
STARTCHAR 0048
ENCODING 72
SWIDTH 756 0
DWIDTH 28 0
BBX 26 26 1 0
BITMAP
FFE0FFC0
FFC07FC0
1E001E00
1E001E00
1E001E00
1E001E00
1E001E00
1E001E00
1E001E00
1E001E00
1E001E00
1E001E00
1FFFFE00
1C000E00
1E001E00
1E001E00
1E001E00
1E001E00
1E001E00
1E001E00
1E001E00
1E001E00
1E001E00
1E001E00
3F003E00
FFE0FFC0
ENDCHAR
STARTCHAR 0049
ENCODING 73
SWIDTH 351 0
DWIDTH 13 0
BBX 11 26 1 0
BITMAP
FFE0
FFE0
1E00
1E00
1E00
1E00
1E00
1E00
1E00
1E00
1E00
1E00
1E00
1E00
1E00
1E00
1E00
1E00
1E00
1E00
1E00
1E00
1E00
1E00
1F00
FFE0
ENDCHAR
STARTCHAR 004A
ENCODING 74
SWIDTH 567 0
DWIDTH 21 0
BBX 19 27 1 -1
BITMAP
00FFE0
007FE0
000E00
000E00
000E00
000E00
000E00
000E00
000E00
000E00
000E00
000E00
000E00
000E00
000E00
000E00
000E00
000E00
000E00
E00E00
E00E00
E00E00
E01C00
E03C00
707800
1FE000
030000
ENDCHAR
STARTCHAR 004B
ENCODING 75
SWIDTH 729 0
DWIDTH 27 0
BBX 26 26 1 0
BITMAP
FFC1FF00
FFC0FF00
1C007000
1C007000
1C006000
1C01C000
1C018000
1C070000
1C0E0000
1C0C0000
1C3C0000
1C7C0000
1C7E0000
1C9F0000
1D8F0000
1F0F8000
1C07C000
1C03C000
1C03E000
1C01F000
1C01F000
1C00F800
1C007C00
1C007E00
3E003E00
FFC01FC0
ENDCHAR
STARTCHAR 004C
ENCODING 76
SWIDTH 648 0
DWIDTH 24 0
BBX 22 26 1 0
BITMAP
FFE000
FFC000
1E0000
1E0000
1E0000
1E0000
1E0000
1E0000
1E0000
1E0000
1E0000
1E0000
1E0000
1E0000
1E0000
1E0000
1E0000
1E000C
1E000C
1E0008
1E0008
1E0018
1E0038
1E0078
1C00F8
FFFFF0
ENDCHAR
STARTCHAR 004D
ENCODING 77
SWIDTH 918 0
DWIDTH 34 0
BBX 32 26 1 -1
BITMAP
FF0000FF
FF8001FF
1F8001F8
1F8001F8
1BC00138
1BC00378
1BE00278
19F00678
19F00678
18F00E78
18700C78
18780878
18780878
187C1078
183C3078
183E3078
181E6078
181E6078
180E6078
180FC078
180EC078
180FC078
1C078078
1C078078
1C0300F8
FF8107FF
ENDCHAR
STARTCHAR 004E
ENCODING 78
SWIDTH 756 0
DWIDTH 28 0
BBX 26 26 1 0
BITMAP
FE007FC0
7E003FC0
1F800E00
1F800600
1F800600
1BE00600
1BF00600
19F80600
187C0600
187C0600
183E0600
181F0600
180F8600
180FC600
1807C600
1803E600
1801F600
1801F600
1800F600
18007E00
18003E00
18001E00
1C000E00
1C000E00
3C000600
FF800200
ENDCHAR
STARTCHAR 004F
ENCODING 79
SWIDTH 729 0
DWIDTH 27 0
BBX 25 28 1 -1
BITMAP
000C0000
007F8000
01FFE000
07807000
0E007800
1E003C00
1C001E00
3C001E00
7C000F00
78000F00
78000F80
F8000F80
F8000F80
F8000F80
F8000F80
F8000F80
F8000F80
FC000F00
7C000F00
7C000F00
3C000E00
3C001E00
1E001E00
0F007800
07807000
03C0F000
007F8000
000C0000
ENDCHAR
STARTCHAR 0050
ENCODING 80
SWIDTH 621 0
DWIDTH 23 0
BBX 20 26 1 0
BITMAP
FFFE00
FFFF80
1E01E0
1E01F0
1E00F0
1E0070
1E0070
1E0070
1E0070
1E00F0
1E01F0
1E01E0
1E03C0
1FFE00
1C0000
1E0000
1E0000
1E0000
1E0000
1E0000
1E0000
1E0000
1E0000
1E0000
1F0000
FFE000
ENDCHAR
STARTCHAR 0051
ENCODING 81
SWIDTH 729 0
DWIDTH 27 0
BBX 25 33 1 -6
BITMAP
000C0000
007F8000
01FFE000
07807000
0F007800
1E003C00
1C001E00
3C001E00
7C000F00
78000F00
78000F80
F8000F80
F8000F80
F8000F80
F8000F80
F8000F80
F8000F80
F8000F80
7C000F00
7C000F00
3C7E0E00
1C9E0E00
1F8F1E00
0F87F800
0787F000
03C3F000
007DC000
000DE000
0001F000
0000F000
0000F800
00007E00
00003C00
ENDCHAR
STARTCHAR 0052
ENCODING 82
SWIDTH 702 0
DWIDTH 26 0
BBX 25 26 1 0
BITMAP
FFFE0000
FFFFC000
1E01F000
1E00F000
1E00F000
1E007000
1E007800
1E007000
1E007000
1E00F000
1E01E000
1E03C000
1FFFC000
1C0F8000
1E07C000
1E03C000
1E01E000
1E01E000
1E01E000
1E00F000
1E00F000
1E00F000
1E007800
1E007800
1F007C00
FFE03F80
ENDCHAR
STARTCHAR 0053
ENCODING 83
SWIDTH 540 0
DWIDTH 20 0
BBX 18 28 1 -1
BITMAP
010000
0FE180
1FF380
700D80
700F80
E00780
E00380
E00180
F00180
F80000
FC0000
7FC000
3FF000
1FFC00
03FF00
007F80
001FC0
0007C0
8003C0
C001C0
E001C0
E001C0
E001C0
F00380
D80780
DC0F00
83FC00
006000
ENDCHAR
STARTCHAR 0054
ENCODING 84
SWIDTH 648 0
DWIDTH 24 0
BBX 23 26 1 0
BITMAP
FFFFFC
FFFFFE
E0781E
E0780E
C0780E
807806
807806
807806
007800
007800
007800
007800
007800
007800
007800
007800
007800
007800
007800
007800
007800
007800
007800
007800
007C00
03FF80
ENDCHAR
STARTCHAR 0055
ENCODING 85
SWIDTH 756 0
DWIDTH 28 0
BBX 26 27 1 -1
BITMAP
FFE07FC0
FFC07FC0
1E000E00
1E000600
1E000600
1E000600
1E000600
1E000600
1E000600
1E000600
1E000600
1E000600
1E000600
1E000600
1E000600
1E000600
1E000600
1E000E00
1E000E00
1F000C00
1F000C00
1F800C00
07803000
07E07000
03FFF000
007F8000
000C0000
ENDCHAR
STARTCHAR 0056
ENCODING 86
SWIDTH 729 0
DWIDTH 27 0
BBX 27 26 0 -1
BITMAP
FFC01FE0
7F801FC0
1E000700
1E000700
0E000600
0F000400
0F800400
0F800C00
07C01800
03C01800
03C03800
01C03000
01E03000
01F06000
00F06000
00F8E000
0078C000
0078C000
00388000
003D0000
00390000
003B0000
001F0000
000E0000
000E0000
00040000
ENDCHAR
STARTCHAR 0057
ENCODING 87
SWIDTH 1027 0
DWIDTH 38 0
BBX 38 27 0 -1
BITMAP
FFC7FC03FC
7FC3FC03F8
1E00F00060
1E00F00060
0E00F80040
0F00780080
0F00780180
0F803C0180
07C03C0380
03C03C0380
03C03E0300
01C03E0200
01E06F0200
01E0EF0400
01F0C70C00
00F0C70C00
00F8879C00
0079079800
007903D800
003B03D000
003B01F000
003E01E000
003E00E000
001C00E000
001C00E000
000800C000
0008004000
ENDCHAR
STARTCHAR 0058
ENCODING 88
SWIDTH 729 0
DWIDTH 27 0
BBX 26 26 0 0
BITMAP
7FF07F00
7FF03F00
0FC01800
07C03800
07C03000
03E06000
01F0E000
01F8C000
00F98000
007B0000
003E0000
003E0000
003F0000
003F0000
003F8000
0037C000
0063E000
00C3E000
01C1E000
0100F000
0300F800
06007800
0E003C00
0C003E00
3C003F00
FF00FFC0
ENDCHAR
STARTCHAR 0059
ENCODING 89
SWIDTH 729 0
DWIDTH 27 0
BBX 25 26 1 0
BITMAP
FF807F80
FF807F80
3E000C00
1E000800
1E000800
0F803000
07803000
07C06000
03C04000
03E0C000
00F18000
00F10000
00790000
00760000
003E0000
001E0000
001E0000
001E0000
001E0000
001E0000
001E0000
001E0000
001E0000
001E0000
003E0000
01FFC000
ENDCHAR
STARTCHAR 005A
ENCODING 90
SWIDTH 594 0
DWIDTH 22 0
BBX 20 26 1 0
BITMAP
7FFFF0
FFFFE0
F003C0
E003C0
E00780
E00F00
C00F00
C01E00
C03E00
003C00
007800
007000
00F000
01E000
03E000
03C000
078000
078010
0F8010
1E0010
1E0030
1C0030
7C0070
780070
E001E0
FFFFE0
ENDCHAR
STARTCHAR 005B
ENCODING 91
SWIDTH 351 0
DWIDTH 13 0
BBX 10 34 3 -7
BITMAP
FFC0
C000
F000
F000
F000
F000
F000
F000
F000
F000
F000
F000
F000
F000
F000
F000
F000
F000
F000
F000
F000
F000
F000
F000
F000
F000
F000
F000
F000
F000
F000
F000
F000
FF80
ENDCHAR
STARTCHAR 005C
ENCODING 92
SWIDTH 351 0
DWIDTH 13 0
BBX 15 34 1 -9
BITMAP
8000
8000
C000
C000
6000
2000
2000
1000
1000
1800
0C00
0C00
0400
0400
0200
0200
0300
0180
0180
0080
0080
0040
0040
0060
0060
0030
0010
0008
0008
0008
000C
0006
0006
0002
ENDCHAR
STARTCHAR 005D
ENCODING 93
SWIDTH 351 0
DWIDTH 13 0
BBX 9 34 1 -7
BITMAP
FF80
0180
0380
0380
0380
0380
0380
0380
0380
0380
0380
0380
0380
0380
0380
0380
0380
0380
0380
0380
0380
0380
0380
0380
0380
0380
0380
0380
0380
0380
0380
0380
0380
FF80
ENDCHAR
STARTCHAR 005E
ENCODING 94
SWIDTH 567 0
DWIDTH 21 0
BBX 18 13 1 13
BITMAP
004000
00E000
01B000
03B000
031800
060C00
040E00
1C0E00
180200
100300
200180
6000C0
E000C0
ENDCHAR
STARTCHAR 005F
ENCODING 95
SWIDTH 432 0
DWIDTH 16 0
BBX 16 2 0 -6
BITMAP
FFFF
FFFF
ENDCHAR
STARTCHAR 0060
ENCODING 96
SWIDTH 513 0
DWIDTH 19 0
BBX 8 7 4 20
BITMAP
60
F0
F8
7C
1C
0C
03
ENDCHAR
STARTCHAR 0061
ENCODING 97
SWIDTH 513 0
DWIDTH 19 0
BBX 18 18 1 0
BITMAP
07C000
1FF000
303C00
603E00
781E00
701E00
001E00
001E00
03FE00
0F1E00
1C1E00
F01E00
F01E00
F01E00
F03E00
F87E00
F8DEC0
3F0F00
ENDCHAR
STARTCHAR 0062
ENCODING 98
SWIDTH 567 0
DWIDTH 21 0
BBX 18 27 1 0
BITMAP
1C0000
FC0000
FC0000
3C0000
3C0000
3C0000
3C0000
3C0000
3C0000
3C7800
3CFE00
3F9F80
3A0F80
3407C0
3C03C0
3C03C0
3C01C0
3C01C0
3C01C0
3C01C0
3C01C0
3C01C0
3C03C0
3C0780
3C0700
3C0E00
23F800
ENDCHAR
STARTCHAR 0063
ENCODING 99
SWIDTH 432 0
DWIDTH 16 0
BBX 15 18 1 0
BITMAP
03E0
0FF0
1C0C
380E
701E
F00E
F000
E000
E000
E000
F000
F000
F000
F800
7C04
3E08
1FF8
07E0
ENDCHAR
STARTCHAR 0064
ENCODING 100
SWIDTH 567 0
DWIDTH 21 0
BBX 18 27 1 0
BITMAP
000180
001F80
001F80
000780
000780
000780
000780
000780
000780
03F780
07FF80
1C0F80
380780
380780
700780
E00780
E00780
E00780
E00780
E00780
F00780
F00780
F00780
7C0B80
7C1780
3FF780
0FC7C0
ENDCHAR
STARTCHAR 0065
ENCODING 101
SWIDTH 486 0
DWIDTH 18 0
BBX 15 18 1 0
BITMAP
03E0
0FF0
1C3C
381E
381E
700E
F00E
FFFE
E000
F000
F000
F000
F800
F800
3C02
3E0C
1FFC
07F0
ENDCHAR
STARTCHAR 0066
ENCODING 102
SWIDTH 324 0
DWIDTH 12 0
BBX 16 27 0 0
BITMAP
00F8
01FC
0306
0E0F
0E0E
0E06
0E00
0E00
1E00
7FE0
7FE0
1E00
1E00
1E00
1E00
1E00
1E00
1E00
1E00
1E00
1E00
1E00
1E00
1E00
1E00
1E00
FFC0
ENDCHAR
STARTCHAR 0067
ENCODING 103
SWIDTH 459 0
DWIDTH 17 0
BBX 19 28 0 -9
BITMAP
0007E0
01E6E0
0FF8E0
1C3C00
381E00
381E00
780F00
700F00
780F00
780F00
781E00
3C1E00
0E7800
07F000
0E0000
300000
700000
700000
7FFE00
3FFF00
3FFFC0
7007C0
6001C0
E00180
E00380
F00700
7FFC00
1FF000
ENDCHAR
STARTCHAR 0068
ENCODING 104
SWIDTH 567 0
DWIDTH 21 0
BBX 20 27 1 0
BITMAP
0C0000
FC0000
7C0000
1C0000
1C0000
1C0000
1C0000
1C0000
1C0000
1C7C00
1C7E00
1F8F80
1F07C0
1A07C0
1C03C0
1C03C0
1C03C0
1C03C0
1C03C0
1C03C0
1C03C0
1C03C0
1C03C0
1C03C0
1C03C0
3C07C0
FF9FF0
ENDCHAR
STARTCHAR 0069
ENCODING 105
SWIDTH 297 0
DWIDTH 11 0
BBX 9 25 1 0
BITMAP
1C00
1C00
1C00
1C00
0000
0000
0000
0400
3C00
7C00
1C00
1C00
1C00
1C00
1C00
1C00
1C00
1C00
1C00
1C00
1C00
1C00
1C00
1E00
FF80
ENDCHAR
STARTCHAR 006A
ENCODING 106
SWIDTH 270 0
DWIDTH 10 0
BBX 10 34 -3 -9
BITMAP
03C0
03C0
03C0
03C0
0000
0000
0000
0040
07C0
0FC0
01C0
01C0
01C0
01C0
01C0
01C0
01C0
01C0
01C0
01C0
01C0
01C0
01C0
01C0
01C0
01C0
01C0
01C0
01C0
E1C0
F1C0
F1C0
3F00
1E00
ENDCHAR
STARTCHAR 006B
ENCODING 107
SWIDTH 567 0
DWIDTH 21 0
BBX 20 27 1 0
BITMAP
0C0000
FC0000
7C0000
1C0000
1C0000
1C0000
1C0000
1C0000
1C0000
1C1FC0
1C1FC0
1C0E00
1C0C00
1C0800
1C3000
1C6000
1C6000
1DF000
1F7000
1A7800
1C3C00
1C1E00
1C1E00
1C0F00
1C0F80
3C07C0
FF81F0
ENDCHAR
STARTCHAR 006C
ENCODING 108
SWIDTH 270 0
DWIDTH 10 0
BBX 9 27 1 0
BITMAP
0C00
FC00
FC00
1C00
1C00
1C00
1C00
1C00
1C00
1C00
1C00
1C00
1C00
1C00
1C00
1C00
1C00
1C00
1C00
1C00
1C00
1C00
1C00
1C00
1C00
3C00
FF80
ENDCHAR
STARTCHAR 006D
ENCODING 109
SWIDTH 891 0
DWIDTH 33 0
BBX 31 18 1 0
BITMAP
043E0F80
3C7E1FC0
7D8FF1E0
1F0761F0
1A0740F0
1C03C0F0
1C03C0F0
1C03C0F0
1C03C0F0
1C03C0F0
1C03C0F0
1C03C0F0
1C03C0F0
1C03C0F0
1C03C0F0
1C03C0F0
1E03C0F8
FF9FF3FE
ENDCHAR
STARTCHAR 006E
ENCODING 110
SWIDTH 567 0
DWIDTH 21 0
BBX 20 18 1 0
BITMAP
043E00
3C7E00
7D8F80
1F07C0
1A07C0
1C03C0
1C03C0
1C03C0
1C03C0
1C03C0
1C03C0
1C03C0
1C03C0
1C03C0
1C03C0
1C03C0
3C07C0
FF9FF0
ENDCHAR
STARTCHAR 006F
ENCODING 111
SWIDTH 513 0
DWIDTH 19 0
BBX 17 19 1 -1
BITMAP
03E000
0FF800
1C1E00
380E00
780E00
F00700
F00780
F00780
F00780
F00780
F00780
F00780
F80700
780700
3C0E00
3C0E00
1C1C00
07F000
008000
ENDCHAR
STARTCHAR 0070
ENCODING 112
SWIDTH 567 0
DWIDTH 21 0
BBX 19 27 1 -9
BITMAP
047C00
3CFE00
FF8F80
3F07C0
1A03C0
1C01E0
1C01E0
1C01E0
1C01E0
1C01E0
1C01E0
1C01C0
1C01C0
1C01C0
1C0380
1C0780
1E0F00
1FF800
1C0000
1C0000
1C0000
1C0000
1C0000
1C0000
3C0000
FF8000
FF8000
ENDCHAR
STARTCHAR 0071
ENCODING 113
SWIDTH 567 0
DWIDTH 21 0
BBX 20 27 1 -9
BITMAP
03F180
07FF80
1C0780
1C0780
380780
780780
700780
F00780
F00780
F00780
F00780
F00780
F80780
F80780
7C0980
3E1B80
1FF780
0FC780
000780
000780
000780
000780
000780
000780
000780
003FF0
003FF0
ENDCHAR
STARTCHAR 0072
ENCODING 114
SWIDTH 432 0
DWIDTH 16 0
BBX 15 18 1 0
BITMAP
043C
3C7E
7C9E
1D1E
1E0E
1C00
1C00
1C00
1C00
1C00
1C00
1C00
1C00
1C00
1C00
1C00
1E00
FF80
ENDCHAR
STARTCHAR 0073
ENCODING 115
SWIDTH 405 0
DWIDTH 15 0
BBX 13 18 1 -1
BITMAP
1E10
3FB0
6070
E070
E030
E010
F010
FC00
3FC0
1FF0
07F0
0078
8078
C038
E038
E030
B070
CFC0
ENDCHAR
STARTCHAR 0074
ENCODING 116
SWIDTH 324 0
DWIDTH 12 0
BBX 10 23 1 0
BITMAP
0400
0400
1C00
1C00
7C00
FFC0
FFC0
3C00
3C00
3C00
3C00
3C00
3C00
3C00
3C00
3C00
3C00
3C00
3C00
3C40
3C40
3F80
1F00
ENDCHAR
STARTCHAR 0075
ENCODING 117
SWIDTH 567 0
DWIDTH 21 0
BBX 18 18 1 0
BITMAP
0400C0
3C0FC0
FC1FC0
3C07C0
1C07C0
1C03C0
1C03C0
1C03C0
1C03C0
1C03C0
1C03C0
1C03C0
1C03C0
1C03C0
1C0DC0
1E0BC0
1FF3C0
07E3C0
ENDCHAR
STARTCHAR 0076
ENCODING 118
SWIDTH 540 0
DWIDTH 20 0
BBX 20 18 0 -1
BITMAP
FF87F0
FF87F0
3E00C0
1E00C0
1E0080
0E0100
0F0300
0F0300
078600
078600
03C400
01C800
01D800
01D800
00F800
00F000
007000
006000
ENDCHAR
STARTCHAR 0077
ENCODING 119
SWIDTH 783 0
DWIDTH 29 0
BBX 28 18 0 0
BITMAP
FFBFE3F0
FFBFE3F0
3E0700E0
1E0700C0
1E078080
0E038080
0F03C100
0F07C100
0785E300
0785E700
03C8E600
01D8F400
01D8F400
01F06800
01F07800
00E03800
00E03800
00403000
ENDCHAR
STARTCHAR 0078
ENCODING 120
SWIDTH 540 0
DWIDTH 20 0
BBX 18 18 1 0
BITMAP
FF0FC0
FF0FC0
3C0700
1E0600
1F0E00
0F9800
07B000
03F000
03E000
01F000
01F000
037800
067C00
043E00
181E00
180F00
300F80
FC7FC0
ENDCHAR
STARTCHAR 0079
ENCODING 121
SWIDTH 540 0
DWIDTH 20 0
BBX 21 27 -1 -9
BITMAP
7FC3F8
7FC3F8
1F00E0
0F0040
0F00C0
070080
070180
078180
03C300
03C200
01C200
01E400
00EC00
00EC00
00F800
00F000
007000
002000
006000
00E000
00C000
00C000
718000
F10000
F30000
7C0000
380000
ENDCHAR
STARTCHAR 007A
ENCODING 122
SWIDTH 459 0
DWIDTH 17 0
BBX 15 18 1 0
BITMAP
FFFE
FFFE
E03C
E078
E078
C0F0
C1F0
81E0
03C0
0380
0780
0F02
1E02
1E02
3C06
780E
E01E
FFFE
ENDCHAR
STARTCHAR 007B
ENCODING 123
SWIDTH 405 0
DWIDTH 15 0
BBX 12 36 2 -8
BITMAP
0020
07D0
0700
0E00
1E00
1E00
1E00
1F00
1F00
1F00
0F00
0700
0700
0700
0700
0E00
1C00
3800
F800
1C00
0E00
0700
0700
0780
0780
0F80
0F00
1F00
1F00
1E00
1E00
1E00
0E00
0F00
0700
00E0
ENDCHAR
STARTCHAR 007C
ENCODING 124
SWIDTH 351 0
DWIDTH 13 0
BBX 1 35 6 -9
BITMAP
80
80
80
80
80
80
80
80
80
80
80
80
80
80
80
80
80
80
80
80
80
80
80
80
80
80
80
80
80
80
80
80
80
80
80
ENDCHAR
STARTCHAR 007D
ENCODING 125
SWIDTH 405 0
DWIDTH 15 0
BBX 12 36 1 -8
BITMAP
E000
7C00
0F00
0700
0780
0780
0780
0780
0F80
1F00
1F00
1E00
1E00
1E00
1E00
0E00
0380
01C0
0070
0380
0700
0E00
1E00
1E00
1E00
1F00
1F00
0F80
0F80
0780
0780
0780
0780
0E00
1C00
FC00
ENDCHAR
STARTCHAR 007E
ENCODING 126
SWIDTH 567 0
DWIDTH 21 0
BBX 17 5 2 9
BITMAP
3F0080
7FF180
FFFF80
83FF00
001C00
ENDCHAR
STARTCHAR 00A1
ENCODING 161
SWIDTH 243 0
DWIDTH 9 0
BBX 5 27 2 -1
BITMAP
F8
F8
F8
F8
F8
00
00
00
00
00
20
20
20
20
20
20
60
60
60
70
70
70
70
F0
F0
70
20
ENDCHAR
STARTCHAR 00A2
ENCODING 162
SWIDTH 432 0
DWIDTH 16 0
BBX 15 25 1 -4
BITMAP
0030
0030
0070
03E0
0FF0
1C6C
384E
705E
F08E
F080
E180
E180
E380
F300
F200
F200
FA00
7C04
3C08
1FF8
0FE0
1800
1800
1000
1000
ENDCHAR
STARTCHAR 00A3
ENCODING 163
SWIDTH 540 0
DWIDTH 20 0
BBX 18 27 1 -1
BITMAP
00FC00
03FE00
070180
0F01C0
0E03C0
1E03C0
1E0180
1F0000
1F0000
0F0000
0F8000
0F8000
FFFE00
038000
038000
038000
038000
03C000
038000
018000
018000
7D8000
83B1C0
83FF80
82FF80
FC3E00
000C00
ENDCHAR
STARTCHAR 00A5
ENCODING 165
SWIDTH 729 0
DWIDTH 27 0
BBX 25 26 1 0
BITMAP
FF807F80
FF807F80
3E000C00
1E000800
1E000800
0F803000
07803000
07C06000
03C04000
03E0C000
00F18000
00F10000
00790000
007E0000
003E0000
001E0000
0FFFF000
001E0000
0FFFF000
000E0000
001E0000
001E0000
001E0000
001E0000
003E0000
01FFC000
ENDCHAR
STARTCHAR 00A7
ENCODING 167
SWIDTH 513 0
DWIDTH 19 0
BBX 16 30 1 -3
BITMAP
0180
07F0
1FF8
1C1C
383E
383E
3808
3C00
3F80
07C0
1FF0
71FE
607E
E03E
E00F
F007
F807
7F06
3F8E
1FFE
03F0
00FC
007E
180E
3C0E
3C0E
380E
1C1C
0FF0
03C0
ENDCHAR
STARTCHAR 00A8
ENCODING 168
SWIDTH 513 0
DWIDTH 19 0
BBX 11 4 4 21
BITMAP
E1E0
E1E0
E1E0
E1E0
ENDCHAR
STARTCHAR 00A9
ENCODING 169
SWIDTH 810 0
DWIDTH 30 0
BBX 27 28 1 -1
BITMAP
000E0000
007FC000
00F07000
03000C00
04000600
0C000200
100E0180
201FC0C0
6078E0C0
6060F040
40E0F040
C1C04020
C1C00020
C1C00020
C1C00020
C1E00020
C1E00020
40F02040
60F06040
607CC040
201F80C0
10060180
18000100
04000600
02000C00
03801800
007FE000
00060000
ENDCHAR
STARTCHAR 00AB
ENCODING 171
SWIDTH 567 0
DWIDTH 21 0
BBX 17 17 2 0
BITMAP
008080
010300
030200
060400
0C1C00
1C1C00
383800
78F000
F8F000
78F800
3C3C00
1C1C00
0E1C00
070600
030200
010300
008080
ENDCHAR
STARTCHAR 00AE
ENCODING 174
SWIDTH 567 0
DWIDTH 21 0
BBX 17 17 2 10
BITMAP
07F000
0C1800
380400
4FE200
442300
463100
861080
862080
87E080
862080
C62080
471100
4F1F00
200200
181C00
077800
03E000
ENDCHAR
STARTCHAR 00AF
ENCODING 175
SWIDTH 513 0
DWIDTH 19 0
BBX 11 2 4 22
BITMAP
FFE0
FFE0
ENDCHAR
STARTCHAR 00B0
ENCODING 176
SWIDTH 378 0
DWIDTH 14 0
BBX 12 11 1 16
BITMAP
1F80
3FC0
6070
E070
C030
C030
C030
E070
6060
70E0
1F80
ENDCHAR
STARTCHAR 00B2
ENCODING 178
SWIDTH 297 0
DWIDTH 11 0
BBX 9 14 1 12
BITMAP
3E00
E700
C380
C380
C380
0300
0600
0C00
1C00
1800
2080
6080
DF80
FF80
ENDCHAR
STARTCHAR 00B3
ENCODING 179
SWIDTH 324 0
DWIDTH 12 0
BBX 9 14 1 12
BITMAP
7F80
FF80
C200
8400
0400
1C00
1F00
1F80
0380
0180
E180
C380
C380
3E00
ENDCHAR
STARTCHAR 00B4
ENCODING 180
SWIDTH 513 0
DWIDTH 19 0
BBX 7 7 7 20
BITMAP
0C
1E
1E
3C
78
60
80
ENDCHAR
STARTCHAR 00B6
ENCODING 182
SWIDTH 621 0
DWIDTH 23 0
BBX 20 35 1 -9
BITMAP
03FFF0
0FFFF0
3FE1C0
7FF1C0
7FF1C0
FFF1C0
FFF1C0
FFF1C0
FFF1C0
FFF1C0
FFF1C0
FFF1C0
FFF1C0
7FF1C0
3FF1C0
1FF1C0
07F1C0
01F1C0
0031C0
0031C0
0031C0
0031C0
0031C0
0031C0
0031C0
0031C0
0031C0
0031C0
0031C0
0031C0
0031C0
0031C0
0031C0
0031C0
0031C0
ENDCHAR
STARTCHAR 00B7
ENCODING 183
SWIDTH 243 0
DWIDTH 9 0
BBX 5 5 2 11
BITMAP
F8
F8
F8
F8
F8
ENDCHAR
STARTCHAR 00B8
ENCODING 184
SWIDTH 513 0
DWIDTH 19 0
BBX 5 8 8 -7
BITMAP
20
20
40
F8
78
18
18
F8
ENDCHAR
STARTCHAR 00B9
ENCODING 185
SWIDTH 216 0
DWIDTH 8 0
BBX 6 14 1 12
BITMAP
30
F0
30
30
30
30
30
30
30
30
30
30
30
FC
ENDCHAR
STARTCHAR 00BB
ENCODING 187
SWIDTH 567 0
DWIDTH 21 0
BBX 16 17 3 0
BITMAP
8100
40C0
6040
7060
3838
1C38
1E3C
0F1F
0F8F
0F0F
0E1C
1C38
1838
3020
6040
40C0
8100
ENDCHAR
STARTCHAR 00BC
ENCODING 188
SWIDTH 621 0
DWIDTH 23 0
BBX 21 26 1 0
BITMAP
300060
F00040
3001C0
300180
300100
300200
300600
300E00
300C00
300800
303000
303000
3061C0
FC41C0
008180
018100
030220
030660
020C60
041068
0C1FF8
1C3FF0
100060
300060
200060
E001F0
ENDCHAR
STARTCHAR 00BD
ENCODING 189
SWIDTH 648 0
DWIDTH 24 0
BBX 22 26 1 0
BITMAP
300060
F00040
3001C0
300180
300100
300200
300600
300E00
300C00
300800
303000
303000
3061E0
FC4678
008E38
008E38
030438
030030
020070
040060
0C00C0
1C00C0
10010C
300208
2003F8
E00FF8
ENDCHAR
STARTCHAR 00BE
ENCODING 190
SWIDTH 702 0
DWIDTH 26 0
BBX 24 26 1 0
BITMAP
7F800C
FF8008
C20030
840030
040060
1C0040
1F00C0
1F81C0
038100
018100
E18600
C38600
C38C38
3C0870
001070
003060
006044
0040CC
00418C
00820D
0183FF
0307FE
02000C
04000C
04000C
18007E
ENDCHAR
STARTCHAR 00BF
ENCODING 191
SWIDTH 432 0
DWIDTH 16 0
BBX 15 26 1 0
BITMAP
03C0
03C0
03C0
03C0
03C0
0000
0000
0100
0080
0080
0180
0180
0380
0E00
1C00
3C00
7000
F000
E000
E00E
E00E
E00E
F00E
780E
3C0C
0FF0
ENDCHAR
STARTCHAR 00C0
ENCODING 192
SWIDTH 729 0
DWIDTH 27 0
BBX 27 35 0 0
BITMAP
00600000
00F80000
00F80000
007C0000
000C0000
00020000
00010000
00000000
00040000
00040000
00060000
000E0000
001F0000
001F0000
00370000
00378000
00378000
0067C000
0043C000
00C1E000
00C1E000
01C1E000
0180F000
0100F000
0100F800
03FFF800
06003800
06003800
0C003C00
0C003E00
0C003E00
18001F00
38001F00
7C001F00
FE007FE0
ENDCHAR
STARTCHAR 00C1
ENCODING 193
SWIDTH 729 0
DWIDTH 27 0
BBX 27 35 0 0
BITMAP
00018000
0003C000
0003C000
00078000
000F0000
00180000
00000000
00000000
00040000
00040000
00060000
000E0000
001F0000
001F0000
00370000
00378000
00378000
0067C000
0043C000
00C1E000
00C1E000
01C1E000
0180F000
0100F000
0100F800
03FFF800
06003800
06003800
0C003C00
0C003E00
0C003E00
18001F00
38001F00
7C001F00
FE007FE0
ENDCHAR
STARTCHAR 00C2
ENCODING 194
SWIDTH 729 0
DWIDTH 27 0
BBX 27 33 0 0
BITMAP
001F0000
00398000
003FC000
00406000
00802000
00000000
00040000
00040000
00060000
000E0000
001F0000
001F0000
00370000
00378000
00378000
0067C000
0043C000
00C1E000
00C1E000
01C1E000
0180F000
0100F000
0100F800
03FFF800
06003800
06003800
0C003C00
0C003E00
0C003E00
18001F00
38001F00
7C001F00
FE007FE0
ENDCHAR
STARTCHAR 00C3
ENCODING 195
SWIDTH 729 0
DWIDTH 27 0
BBX 27 34 0 0
BITMAP
00300800
007E1000
00FFF000
009FE000
0003E000
00000000
00000000
00040000
00040000
00060000
000E0000
001F0000
001F0000
00370000
00378000
00378000
0067C000
0043C000
00C1E000
00C1E000
01C1E000
0180F000
0100F000
0100F800
03FFF800
06003800
06003800
0C003C00
0C003E00
0C003E00
18001F00
38001F00
7C001F00
FE007FE0
ENDCHAR
STARTCHAR 00C4
ENCODING 196
SWIDTH 729 0
DWIDTH 27 0
BBX 27 33 0 0
BITMAP
00F0E000
00F0E000
00F0E000
00000000
00000000
00000000
00040000
00040000
00060000
000E0000
001F0000
001F0000
00370000
00378000
00378000
0067C000
0043C000
00C1E000
00C1E000
01C1E000
0180F000
0100F000
0100F800
03FFF800
06003800
06003800
0C003C00
0C003E00
0C003E00
18001F00
38001F00
7C001F00
FE007FE0
ENDCHAR
STARTCHAR 00C5
ENCODING 197
SWIDTH 729 0
DWIDTH 27 0
BBX 27 35 0 0
BITMAP
00040000
001F0000
00308000
00308000
00308000
00398000
001F0000
00060000
00040000
00040000
00060000
000E0000
001F0000
001F0000
00370000
00378000
00378000
0067C000
0043C000
00C1E000
00C1E000
01C1E000
0180F000
0100F000
0100F800
03FFF800
06003800
06003800
0C003C00
0C003E00
0C003E00
18001F00
38001F00
7C001F00
FE007FE0
ENDCHAR
STARTCHAR 00C6
ENCODING 198
SWIDTH 1108 0
DWIDTH 41 0
BBX 38 26 0 0
BITMAP
0000FFFFF8
0000FFFFF8
00002E0078
00007E0038
00007E0018
00009E0018
00009E0008
00031E0008
00031E0308
00061E0300
00041E0300
00081E0700
00081FFF00
00301E0700
00301E0300
00201E0300
007FFE0300
00C01E030C
01C01E000C
01001E000C
03001E000C
02001E0008
0E001E0018
0E001E0038
3E003C0078
FF80FFFFF8
ENDCHAR
STARTCHAR 00C7
ENCODING 199
SWIDTH 648 0
DWIDTH 24 0
BBX 22 33 1 -7
BITMAP
00FF0C
03FFDC
07806C
0F007C
1E003C
3C001C
3C000C
7C000C
78000C
F80000
F00000
F00000
F00000
F00000
F00000
F80000
F80000
F80000
7C0000
7C0004
3C0008
1E0008
1F0030
0F8060
03E1C0
00FF00
001000
003000
003C00
003E00
000E00
000E00
003C00
ENDCHAR
STARTCHAR 00C8
ENCODING 200
SWIDTH 648 0
DWIDTH 24 0
BBX 22 35 1 0
BITMAP
01C000
01E000
01E000
01F000
003800
000800
000400
000000
000000
FFFFF0
FFFFF8
1E0078
1E0038
1E0038
1E0018
1E0018
1E0008
1E0108
1E0100
1E0300
1E0700
1FFF00
1E0F00
1E0300
1E0300
1E0100
1E010C
1E000C
1E0008
1E0008
1E0008
1E0018
1E0078
1C00F8
FFFFF0
ENDCHAR
STARTCHAR 00C9
ENCODING 201
SWIDTH 648 0
DWIDTH 24 0
BBX 22 35 1 0
BITMAP
000700
000700
000F00
001F00
003C00
002000
004000
000000
000000
FFFFF0
FFFFF8
1E0078
1E0038
1E0038
1E0018
1E0018
1E0008
1E0108
1E0100
1E0300
1E0700
1FFF00
1E0F00
1E0300
1E0300
1E0100
1E010C
1E000C
1E0008
1E0008
1E0008
1E0018
1E0078
1C00F8
FFFFF0
ENDCHAR
STARTCHAR 00CA
ENCODING 202
SWIDTH 648 0
DWIDTH 24 0
BBX 22 33 1 0
BITMAP
007E00
007600
00EF00
018180
020040
000000
000000
FFFFF0
FFFFF8
1E0078
1E0038
1E0038
1E0018
1E0018
1E0008
1E0108
1E0100
1E0300
1E0700
1FFF00
1E0F00
1E0300
1E0300
1E0100
1E010C
1E000C
1E0008
1E0008
1E0008
1E0018
1E0078
1C00F8
FFFFF0
ENDCHAR
STARTCHAR 00CB
ENCODING 203
SWIDTH 648 0
DWIDTH 24 0
BBX 22 33 1 0
BITMAP
03C3C0
03C3C0
03C3C0
000000
000000
000000
000000
FFFFF0
FFFFF8
1E0078
1E0038
1E0038
1E0018
1E0018
1E0008
1E0108
1E0100
1E0300
1E0700
1FFF00
1E0F00
1E0300
1E0300
1E0100
1E010C
1E000C
1E0008
1E0008
1E0008
1E0018
1E0078
1C00F8
FFFFF0
ENDCHAR
STARTCHAR 00CC
ENCODING 204
SWIDTH 351 0
DWIDTH 13 0
BBX 11 35 1 0
BITMAP
6000
F800
F800
7800
0C00
0600
0100
0000
0000
FFE0
FFE0
1E00
1E00
1E00
1E00
1E00
1E00
1E00
1E00
1E00
1E00
1E00
1E00
1E00
1E00
1E00
1E00
1E00
1E00
1E00
1E00
1E00
1E00
1F00
FFE0
ENDCHAR
STARTCHAR 00CD
ENCODING 205
SWIDTH 351 0
DWIDTH 13 0
BBX 11 35 1 0
BITMAP
0180
03C0
07C0
0780
0F00
1800
2000
0000
0000
FFE0
FFE0
1E00
1E00
1E00
1E00
1E00
1E00
1E00
1E00
1E00
1E00
1E00
1E00
1E00
1E00
1E00
1E00
1E00
1E00
1E00
1E00
1E00
1E00
1F00
FFE0
ENDCHAR
STARTCHAR 00CE
ENCODING 206
SWIDTH 351 0
DWIDTH 13 0
BBX 11 33 1 0
BITMAP
1F00
3B80
7780
C040
0020
0000
0000
FFE0
FFE0
1E00
1E00
1E00
1E00
1E00
1E00
1E00
1E00
1E00
1E00
1E00
1E00
1E00
1E00
1E00
1E00
1E00
1E00
1E00
1E00
1E00
1E00
1F00
FFE0
ENDCHAR
STARTCHAR 00CF
ENCODING 207
SWIDTH 351 0
DWIDTH 13 0
BBX 11 33 1 0
BITMAP
E1E0
E1E0
E1E0
0000
0000
0000
0000
FFE0
FFE0
1E00
1E00
1E00
1E00
1E00
1E00
1E00
1E00
1E00
1E00
1E00
1E00
1E00
1E00
1E00
1E00
1E00
1E00
1E00
1E00
1E00
1E00
1F00
FFE0
ENDCHAR
STARTCHAR 00D0
ENCODING 208
SWIDTH 729 0
DWIDTH 27 0
BBX 25 26 1 0
BITMAP
FFFC0000
FFFF8000
1E01F000
1E00F000
1E007800
1E003E00
1E001E00
1E001E00
1E000F00
1E000F00
1E000F80
1E000F80
FFE00F80
0E000F80
1E000F80
1E000F00
1E000F00
1E000F00
1E000E00
1E001E00
1E003C00
1E007C00
1E00F000
1E01E000
3C07C000
FFFC0000
ENDCHAR
STARTCHAR 00D1
ENCODING 209
SWIDTH 756 0
DWIDTH 28 0
BBX 26 34 1 0
BITMAP
00301000
007E1000
00FFF000
009FE000
0003C000
00000000
00000000
00000000
FE007FC0
7E003FC0
1F800E00
1F800600
1F800600
1BE00600
1BF00600
19F80600
187C0600
187C0600
183E0600
181F0600
180F8600
180FC600
1807C600
1803E600
1801F600
1801F600
1800F600
18007E00
18003E00
18001E00
1C000E00
1C000E00
3C000600
FF800200
ENDCHAR
STARTCHAR 00D2
ENCODING 210
SWIDTH 729 0
DWIDTH 27 0
BBX 25 36 1 -1
BITMAP
00C00000
01F00000
01F00000
00F80000
00180000
00040000
00020000
00000000
000C0000
007F8000
01FFE000
07807000
0E007800
1E003C00
1C001E00
3C001E00
7C000F00
78000F00
78000F80
F8000F80
F8000F80
F8000F80
F8000F80
F8000F80
F8000F80
FC000F00
7C000F00
7C000F00
3C000E00
3C001E00
1E001E00
0F007800
07807000
03C0F000
007F8000
000C0000
ENDCHAR
STARTCHAR 00D3
ENCODING 211
SWIDTH 729 0
DWIDTH 27 0
BBX 25 36 1 -1
BITMAP
00030000
00078000
00078000
000F0000
001E0000
00300000
00000000
00000000
000C0000
007F8000
01FFE000
07807000
0E007800
1E003C00
1C001E00
3C001E00
7C000F00
78000F00
78000F80
F8000F80
F8000F80
F8000F80
F8000F80
F8000F80
F8000F80
FC000F00
7C000F00
7C000F00
3C000E00
3C001E00
1E001E00
0F007800
07807000
03C0F000
007F8000
000C0000
ENDCHAR
STARTCHAR 00D4
ENCODING 212
SWIDTH 729 0
DWIDTH 27 0
BBX 25 34 1 -1
BITMAP
003E0000
00730000
007F8000
0080C000
01004000
00000000
000C0000
007F8000
01FFE000
07807000
0E007800
1E003C00
1C001E00
3C001E00
7C000F00
78000F00
78000F80
F8000F80
F8000F80
F8000F80
F8000F80
F8000F80
F8000F80
FC000F00
7C000F00
7C000F00
3C000E00
3C001E00
1E001E00
0F007800
07807000
03C0F000
007F8000
000C0000
ENDCHAR
STARTCHAR 00D5
ENCODING 213
SWIDTH 729 0
DWIDTH 27 0
BBX 25 35 1 -1
BITMAP
00601000
00FC2000
01FFE000
013FC000
0007C000
00000000
00000000
000C0000
007F8000
01FFE000
07807000
0E007800
1E003C00
1C001E00
3C001E00
7C000F00
78000F00
78000F80
F8000F80
F8000F80
F8000F80
F8000F80
F8000F80
F8000F80
FC000F00
7C000F00
7C000F00
3C000E00
3C001E00
1E001E00
0F007800
07807000
03C0F000
007F8000
000C0000
ENDCHAR
STARTCHAR 00D6
ENCODING 214
SWIDTH 729 0
DWIDTH 27 0
BBX 25 34 1 -1
BITMAP
01E1C000
01E1C000
01E1C000
00000000
00000000
00000000
000C0000
007F8000
01FFE000
07807000
0E007800
1E003C00
1C001E00
3C001E00
7C000F00
78000F00
78000F80
F8000F80
F8000F80
F8000F80
F8000F80
F8000F80
F8000F80
FC000F00
7C000F00
7C000F00
3C000E00
3C001E00
1E001E00
0F007800
07807000
03C0F000
007F8000
000C0000
ENDCHAR
STARTCHAR 00D7
ENCODING 215
SWIDTH 513 0
DWIDTH 19 0
BBX 13 14 3 5
BITMAP
0008
C018
6038
3060
18C0
0DC0
0700
0700
0F80
18C0
3060
7030
C018
0008
ENDCHAR
STARTCHAR 00D8
ENCODING 216
SWIDTH 729 0
DWIDTH 27 0
BBX 27 28 0 -1
BITMAP
00060000
003FE060
00FFF0E0
03C03980
07003F00
0F001F00
0E000D00
1E001F00
3E003F80
3C006780
3C00E780
7C0187C0
7C0307C0
7C0707C0
7C0C07C0
7C1807C0
7C3807C0
7C600780
3CC00780
3FC00780
1F000700
16000F00
0E000F00
1F803C00
33C03800
71E07800
C03FC000
00060000
ENDCHAR
STARTCHAR 00D9
ENCODING 217
SWIDTH 756 0
DWIDTH 28 0
BBX 26 36 1 -1
BITMAP
00600000
00F80000
00F80000
00780000
000C0000
00060000
00010000
00000000
00000000
FFE07FC0
FFC07FC0
1E000E00
1E000600
1E000600
1E000600
1E000600
1E000600
1E000600
1E000600
1E000600
1E000600
1E000600
1E000600
1E000600
1E000600
1E000600
1E000E00
1E000E00
1F000C00
1F000C00
1F800C00
07803000
07E07000
03FFF000
007F8000
000C0000
ENDCHAR
STARTCHAR 00DA
ENCODING 218
SWIDTH 756 0
DWIDTH 28 0
BBX 26 36 1 -1
BITMAP
00018000
0003C000
0007C000
00078000
000F0000
00180000
00200000
00000000
00000000
FFE07FC0
FFC07FC0
1E000E00
1E000600
1E000600
1E000600
1E000600
1E000600
1E000600
1E000600
1E000600
1E000600
1E000600
1E000600
1E000600
1E000600
1E000600
1E000E00
1E000E00
1F000C00
1F000C00
1F800C00
07803000
07E07000
03FFF000
007F8000
000C0000
ENDCHAR
STARTCHAR 00DB
ENCODING 219
SWIDTH 756 0
DWIDTH 28 0
BBX 26 34 1 -1
BITMAP
001F0000
00398000
0077C000
00404000
00802000
00000000
00000000
FFE07FC0
FFC07FC0
1E000E00
1E000600
1E000600
1E000600
1E000600
1E000600
1E000600
1E000600
1E000600
1E000600
1E000600
1E000600
1E000600
1E000600
1E000600
1E000E00
1E000E00
1F000C00
1F000C00
1F800C00
07803000
07E07000
03FFF000
007F8000
000C0000
ENDCHAR
STARTCHAR 00DC
ENCODING 220
SWIDTH 756 0
DWIDTH 28 0
BBX 26 34 1 -1
BITMAP
00F1E000
00F1E000
00F1E000
00000000
00000000
00000000
00000000
FFE07FC0
FFC07FC0
1E000E00
1E000600
1E000600
1E000600
1E000600
1E000600
1E000600
1E000600
1E000600
1E000600
1E000600
1E000600
1E000600
1E000600
1E000600
1E000E00
1E000E00
1F000C00
1F000C00
1F800C00
07803000
07E07000
03FFF000
007F8000
000C0000
ENDCHAR
STARTCHAR 00DD
ENCODING 221
SWIDTH 729 0
DWIDTH 27 0
BBX 25 35 1 0
BITMAP
00018000
0003C000
0007C000
00078000
000F0000
00180000
00200000
00000000
00000000
FF807F80
FF807F80
3E000C00
1E000800
1E000800
0F803000
07803000
07C06000
03C04000
03E0C000
00F18000
00F10000
00790000
00760000
003E0000
001E0000
001E0000
001E0000
001E0000
001E0000
001E0000
001E0000
001E0000
001E0000
003E0000
01FFC000
ENDCHAR
STARTCHAR 00DE
ENCODING 222
SWIDTH 621 0
DWIDTH 23 0
BBX 20 26 1 0
BITMAP
FFE000
FFC000
1E0000
1E0000
1E0000
1FFC00
1FFF80
1E07E0
1E01F0
1E00F0
1E0070
1E0070
1E0070
1E0070
1E00F0
1E00F0
1E01E0
1E03C0
1FFF80
1C0000
1E0000
1E0000
1E0000
1E0000
1F0000
FFE000
ENDCHAR
STARTCHAR 00DF
ENCODING 223
SWIDTH 594 0
DWIDTH 22 0
BBX 20 27 1 0
BITMAP
00F000
03FE00
070E00
1C0780
1C0380
1C0380
1C0380
1C0300
1C0F00
FC0E00
FC0C00
1C3000
1C7000
1C7800
1C3E00
1C3F00
1C0F80
1C07E0
1C01F0
1C01F0
1C4070
1CF070
1CF070
1CE070
1CE070
3C70E0
FC1F80
ENDCHAR
STARTCHAR 00E0
ENCODING 224
SWIDTH 513 0
DWIDTH 19 0
BBX 18 27 1 0
BITMAP
0C0000
1F0000
1F0000
0F0000
018000
00C000
000000
000000
000000
07C000
1FF000
303C00
603E00
781E00
701E00
001E00
001E00
03FE00
0F1E00
1C1E00
F01E00
F01E00
F01E00
F03E00
F87E00
F8DEC0
3F0F00
ENDCHAR
STARTCHAR 00E1
ENCODING 225
SWIDTH 513 0
DWIDTH 19 0
BBX 18 27 1 0
BITMAP
003000
007800
00F800
01F000
01C000
018000
060000
000000
000000
07C000
1FF000
303C00
603E00
781E00
701E00
001E00
001E00
03FE00
0F1E00
1C1E00
F01E00
F01E00
F01E00
F03E00
F87E00
F8DEC0
3F0F00
ENDCHAR
STARTCHAR 00E2
ENCODING 226
SWIDTH 513 0
DWIDTH 19 0
BBX 18 25 1 0
BITMAP
03E000
077000
0EF000
0C7800
300400
000000
000000
07C000
1FF000
303C00
603E00
781E00
701E00
001E00
001E00
03FE00
0F1E00
1C1E00
F01E00
F01E00
F01E00
F03E00
F87E00
F8DEC0
3F0F00
ENDCHAR
STARTCHAR 00E3
ENCODING 227
SWIDTH 513 0
DWIDTH 19 0
BBX 18 26 1 0
BITMAP
040000
1F8200
1FFE00
23FC00
21F800
000000
000000
000000
07C000
1FF000
303C00
603E00
781E00
701E00
001E00
001E00
03FE00
0F1E00
1C1E00
F01E00
F01E00
F01E00
F03E00
F87E00
F8DEC0
3F0F00
ENDCHAR
STARTCHAR 00E4
ENCODING 228
SWIDTH 513 0
DWIDTH 19 0
BBX 18 25 1 0
BITMAP
1C3C00
1C3C00
1C3C00
1C3C00
000000
000000
000000
07C000
1FF000
303C00
603E00
781E00
701E00
001E00
001E00
03FE00
0F1E00
1C1E00
F01E00
F01E00
F01E00
F03E00
F87E00
F8DEC0
3F0F00
ENDCHAR
STARTCHAR 00E5
ENCODING 229
SWIDTH 513 0
DWIDTH 19 0
BBX 18 27 1 0
BITMAP
008000
03E000
067000
043000
043000
043000
03E000
018000
000000
07C000
1FF000
303C00
603E00
781E00
701E00
001E00
001E00
03FE00
0F1E00
1C1E00
F01E00
F01E00
F01E00
F03E00
F87E00
F8DEC0
3F0F00
ENDCHAR
STARTCHAR 00E6
ENCODING 230
SWIDTH 756 0
DWIDTH 28 0
BBX 26 18 1 0
BITMAP
07C07800
1FF1FE00
303F0F00
603E0780
781E0780
701E03C0
001E03C0
001FFFC0
03F80000
0F1E0000
1C1E0000
701E0000
F01E0000
F01E0040
F02F0080
F86FC100
F8C7FF00
3F01FC00
ENDCHAR
STARTCHAR 00E7
ENCODING 231
SWIDTH 432 0
DWIDTH 16 0
BBX 15 25 1 -7
BITMAP
03E0
0FF0
1C0C
380E
701E
F00E
F000
E000
E000
E000
F000
F000
F000
F800
7C04
3E0C
1FF8
07E0
0180
0300
0340
03E0
0070
0070
03E0
ENDCHAR
STARTCHAR 00E8
ENCODING 232
SWIDTH 486 0
DWIDTH 18 0
BBX 15 27 1 0
BITMAP
0C00
1F00
1F00
0F00
0180
00C0
0000
0000
0000
03E0
0FF0
1C3C
381E
381E
700E
F00E
FFFE
E000
F000
F000
F000
F800
F800
3C02
3E0C
1FFC
07F0
ENDCHAR
STARTCHAR 00E9
ENCODING 233
SWIDTH 486 0
DWIDTH 18 0
BBX 15 27 1 0
BITMAP
0030
0078
00F8
01F0
01C0
0180
0600
0000
0000
03E0
0FF0
1C3C
381E
381E
700E
F00E
FFFE
E000
F000
F000
F000
F800
F800
3C02
3E0C
1FFC
07F0
ENDCHAR
STARTCHAR 00EA
ENCODING 234
SWIDTH 486 0
DWIDTH 18 0
BBX 15 25 1 0
BITMAP
03E0
0770
0EF0
0C78
3004
0000
0000
03E0
0FF0
1C3C
381E
381E
700E
F00E
FFFE
E000
F000
F000
F000
F800
F800
3C02
3E0C
1FFC
07F0
ENDCHAR
STARTCHAR 00EB
ENCODING 235
SWIDTH 486 0
DWIDTH 18 0
BBX 15 25 1 0
BITMAP
1C3C
1C3C
1C3C
1C3C
0000
0000
0000
03E0
0FF0
1C3C
381E
381E
700E
F00E
FFFE
E000
F000
F000
F000
F800
F800
3C02
3E0C
1FFC
07F0
ENDCHAR
STARTCHAR 00EC
ENCODING 236
SWIDTH 297 0
DWIDTH 11 0
BBX 10 27 0 0
BITMAP
6000
F800
F800
7C00
0C00
0200
0100
0000
0000
0200
1E00
3E00
0E00
0E00
0E00
0E00
0E00
0E00
0E00
0E00
0E00
0E00
0E00
0E00
0E00
0F00
7FC0
ENDCHAR
STARTCHAR 00ED
ENCODING 237
SWIDTH 297 0
DWIDTH 11 0
BBX 9 27 1 0
BITMAP
0300
0780
0780
0F00
1E00
1800
6000
0000
0000
0400
3C00
7C00
1C00
1C00
1C00
1C00
1C00
1C00
1C00
1C00
1C00
1C00
1C00
1C00
1C00
1E00
FF80
ENDCHAR
STARTCHAR 00EE
ENCODING 238
SWIDTH 297 0
DWIDTH 11 0
BBX 11 25 0 0
BITMAP
1F00
3980
77C0
61C0
8020
0000
0000
0200
1E00
3E00
0E00
0E00
0E00
0E00
0E00
0E00
0E00
0E00
0E00
0E00
0E00
0E00
0E00
0F00
7FC0
ENDCHAR
STARTCHAR 00EF
ENCODING 239
SWIDTH 297 0
DWIDTH 11 0
BBX 11 25 0 0
BITMAP
F1E0
F1E0
F1E0
F1E0
0000
0000
0000
0200
1E00
3E00
0E00
0E00
0E00
0E00
0E00
0E00
0E00
0E00
0E00
0E00
0E00
0E00
0E00
0F00
7FC0
ENDCHAR
STARTCHAR 00F0
ENCODING 240
SWIDTH 513 0
DWIDTH 19 0
BBX 17 27 1 -1
BITMAP
040000
030080
00CF80
007E00
007800
078800
0E1C00
0C0E00
03EE00
0FFE00
1C0F00
3C0F00
380700
700380
F00380
F00380
F00380
F00380
F00380
F00300
F80700
780700
3C0E00
3C0E00
1C1C00
07F000
008000
ENDCHAR
STARTCHAR 00F1
ENCODING 241
SWIDTH 567 0
DWIDTH 21 0
BBX 20 26 1 0
BITMAP
018040
03E040
07FF80
04FF00
087E00
000000
000000
000000
043E00
3C7E00
7D8F80
1F07C0
1A07C0
1C03C0
1C03C0
1C03C0
1C03C0
1C03C0
1C03C0
1C03C0
1C03C0
1C03C0
1C03C0
1C03C0
3C07C0
FF9FF0
ENDCHAR
STARTCHAR 00F2
ENCODING 242
SWIDTH 513 0
DWIDTH 19 0
BBX 17 28 1 -1
BITMAP
060000
0F0000
0F0000
078000
01C000
004000
002000
000000
000000
03E000
0FF800
1C1E00
380E00
780E00
F00700
F00780
F00780
F00780
F00780
F00780
F00780
F80700
780700
3C0E00
3C0E00
1C1C00
07F000
008000
ENDCHAR
STARTCHAR 00F3
ENCODING 243
SWIDTH 513 0
DWIDTH 19 0
BBX 17 28 1 -1
BITMAP
003800
003800
007800
00F800
01E000
01C000
020000
000000
000000
03E000
0FF800
1C1E00
380E00
780E00
F00700
F00780
F00780
F00780
F00780
F00780
F00780
F80700
780700
3C0E00
3C0E00
1C1C00
07F000
008000
ENDCHAR
STARTCHAR 00F4
ENCODING 244
SWIDTH 513 0
DWIDTH 19 0
BBX 17 26 1 -1
BITMAP
03F000
03B000
077800
043C00
180200
000000
000000
03E000
0FF800
1C1E00
380E00
780E00
F00700
F00780
F00780
F00780
F00780
F00780
F00780
F80700
780700
3C0E00
3C0E00
1C1C00
07F000
008000
ENDCHAR
STARTCHAR 00F5
ENCODING 245
SWIDTH 513 0
DWIDTH 19 0
BBX 17 27 1 -1
BITMAP
020100
0F8100
1FFE00
13FE00
00FC00
000000
000000
000000
03E000
0FF800
1C1E00
380E00
780E00
F00700
F00780
F00780
F00780
F00780
F00780
F00780
F80700
780700
3C0E00
3C0E00
1C1C00
07F000
008000
ENDCHAR
STARTCHAR 00F6
ENCODING 246
SWIDTH 513 0
DWIDTH 19 0
BBX 17 26 1 -1
BITMAP
1E1E00
1E1E00
1E1E00
1E1E00
000000
000000
000000
03E000
0FF800
1C1E00
380E00
780E00
F00700
F00780
F00780
F00780
F00780
F00780
F00780
F80700
780700
3C0E00
3C0E00
1C1C00
07F000
008000
ENDCHAR
STARTCHAR 00F8
ENCODING 248
SWIDTH 513 0
DWIDTH 19 0
BBX 18 19 1 -1
BITMAP
03E0C0
0FF9C0
1C1F00
3C0E00
780F00
F01F80
F03780
F07780
F0C780
F18780
F38780
F60780
FC0780
7C0700
180E00
3C0E00
7C1E00
87F000
008000
ENDCHAR
STARTCHAR 00F9
ENCODING 249
SWIDTH 567 0
DWIDTH 21 0
BBX 18 27 1 0
BITMAP
070000
078000
078000
07C000
00C000
002000
001000
000000
000000
0400C0
3C0FC0
FC1FC0
3C07C0
1C07C0
1C03C0
1C03C0
1C03C0
1C03C0
1C03C0
1C03C0
1C03C0
1C03C0
1C03C0
1C0DC0
1E0BC0
1FF3C0
07E3C0
ENDCHAR
STARTCHAR 00FA
ENCODING 250
SWIDTH 567 0
DWIDTH 21 0
BBX 18 27 1 0
BITMAP
001800
003C00
003C00
007800
00F000
00C000
010000
000000
000000
0400C0
3C0FC0
FC1FC0
3C07C0
1C07C0
1C03C0
1C03C0
1C03C0
1C03C0
1C03C0
1C03C0
1C03C0
1C03C0
1C03C0
1C0DC0
1E0BC0
1FF3C0
07E3C0
ENDCHAR
STARTCHAR 00FB
ENCODING 251
SWIDTH 567 0
DWIDTH 21 0
BBX 18 25 1 0
BITMAP
01F000
039800
03FC00
021E00
0C0200
000000
000000
0400C0
3C0FC0
FC1FC0
3C07C0
1C07C0
1C03C0
1C03C0
1C03C0
1C03C0
1C03C0
1C03C0
1C03C0
1C03C0
1C03C0
1C0DC0
1E0BC0
1FF3C0
07E3C0
ENDCHAR
STARTCHAR 00FC
ENCODING 252
SWIDTH 567 0
DWIDTH 21 0
BBX 18 25 1 0
BITMAP
0F0E00
0F0E00
0F0E00
0F0E00
000000
000000
000000
0400C0
3C0FC0
FC1FC0
3C07C0
1C07C0
1C03C0
1C03C0
1C03C0
1C03C0
1C03C0
1C03C0
1C03C0
1C03C0
1C03C0
1C0DC0
1E0BC0
1FF3C0
07E3C0
ENDCHAR
STARTCHAR 00FD
ENCODING 253
SWIDTH 540 0
DWIDTH 20 0
BBX 21 36 -1 -9
BITMAP
000600
000F00
000F00
001E00
003C00
003000
004000
000000
000000
7FC3F8
7FC3F8
1F00E0
0F0040
0F00C0
070080
070180
078180
03C300
03C200
01C200
01E400
00EC00
00EC00
00F800
00F000
007000
002000
006000
00E000
00C000
00C000
718000
F10000
F30000
7C0000
380000
ENDCHAR
STARTCHAR 00FE
ENCODING 254
SWIDTH 540 0
DWIDTH 20 0
BBX 19 36 0 -9
BITMAP
0E0000
7E0000
7E0000
1E0000
1E0000
1E0000
1E0000
1E0000
1E0000
1E3C00
1EFF00
1F8F80
1F07C0
1A03E0
1E01E0
1E01E0
1E01E0
1E00E0
1E00E0
1E00E0
1E01E0
1E01E0
1E01E0
1E0380
1E0780
1E0F00
1FF800
1E0000
1E0000
1E0000
1E0000
1E0000
1E0000
3E0000
FFC000
FFC000
ENDCHAR
STARTCHAR 00FF
ENCODING 255
SWIDTH 540 0
DWIDTH 20 0
BBX 21 34 -1 -9
BITMAP
03C380
03C380
03C380
03C380
000000
000000
000000
7FC3F8
7FC3F8
1F00E0
0F0040
0F00C0
070080
070180
078180
03C300
03C200
01C200
01E400
00EC00
00EC00
00F800
00F000
007000
002000
006000
00E000
00C000
00C000
718000
F10000
F30000
7C0000
380000
ENDCHAR
STARTCHAR 0100
ENCODING 256
SWIDTH 729 0
DWIDTH 27 0
BBX 27 32 0 0
BITMAP
00FFE000
00FFE000
00000000
00000000
00000000
00040000
00040000
00060000
000E0000
001F0000
001F0000
00370000
00378000
00378000
0067C000
0043C000
00C1E000
00C1E000
01C1E000
0180F000
0100F000
0100F800
03FFF800
06003800
06003800
0C003C00
0C003E00
0C003E00
18001F00
38001F00
7C001F00
FE007FE0
ENDCHAR
STARTCHAR 0101
ENCODING 257
SWIDTH 513 0
DWIDTH 19 0
BBX 18 24 1 0
BITMAP
1FFC00
1FFC00
000000
000000
000000
000000
07C000
1FF000
303C00
603E00
781E00
701E00
001E00
001E00
03FE00
0F1E00
1C1E00
F01E00
F01E00
F01E00
F03E00
F87E00
F8DEC0
3F0F00
ENDCHAR
STARTCHAR 0102
ENCODING 258
SWIDTH 729 0
DWIDTH 27 0
BBX 27 33 0 0
BITMAP
00406000
0071E000
003FC000
001F0000
00070000
00000000
00040000
00040000
00060000
000E0000
001F0000
001F0000
00370000
00378000
00378000
0067C000
0043C000
00C1E000
00C1E000
01C1E000
0180F000
0100F000
0100F800
03FFF800
06003800
06003800
0C003C00
0C003E00
0C003E00
18001F00
38001F00
7C001F00
FE007FE0
ENDCHAR
STARTCHAR 0103
ENCODING 259
SWIDTH 513 0
DWIDTH 19 0
BBX 18 25 1 0
BITMAP
100800
1C7800
0FF000
0FF000
01C000
000000
000000
07C000
1FF000
303C00
603E00
781E00
701E00
001E00
001E00
03FE00
0F1E00
1C1E00
F01E00
F01E00
F01E00
F03E00
F87E00
F8DEC0
3F0F00
ENDCHAR
STARTCHAR 0104
ENCODING 260
SWIDTH 729 0
DWIDTH 27 0
BBX 27 35 0 -8
BITMAP
00040000
00040000
00060000
000E0000
001F0000
001F0000
00370000
00378000
00378000
0067C000
0043C000
00C1E000
00C1E000
01C1E000
0180F000
0100F000
0100F800
03FFF800
06003800
06003800
0C003C00
0C003E00
0C003E00
18001F00
38001F00
7C001F00
FE007FC0
000000C0
00000300
00000600
00000600
00000E00
00000E00
000007E0
00000300
ENDCHAR
STARTCHAR 0105
ENCODING 261
SWIDTH 513 0
DWIDTH 19 0
BBX 17 25 1 -7
BITMAP
07C000
1FF000
303C00
603E00
781E00
701E00
001E00
001E00
03FE00
0F1E00
1C1E00
F01E00
F01E00
F01E00
F03E00
F87E00
F8DE80
3F0F00
000E00
003000
007000
007000
007000
007000
007E00
ENDCHAR
STARTCHAR 0106
ENCODING 262
SWIDTH 648 0
DWIDTH 24 0
BBX 22 35 1 0
BITMAP
000300
000780
000780
000F00
001E00
003000
000000
000000
000000
00FF0C
03FFDC
07806C
0F007C
1E003C
3C001C
3C000C
7C000C
78000C
F80000
F00000
F00000
F00000
F00000
F00000
F80000
F80000
F80000
7C0000
7C0004
3C0008
1E0008
1F0030
0F8060
03E1C0
00FF00
ENDCHAR
STARTCHAR 0107
ENCODING 263
SWIDTH 432 0
DWIDTH 16 0
BBX 15 27 1 0
BITMAP
0038
0038
0078
00F8
01E0
01C0
0200
0000
0000
03E0
0FF0
1C0C
380E
701E
F00E
F000
E000
E000
E000
F000
F000
F000
F800
7C04
3E08
1FF8
07E0
ENDCHAR
STARTCHAR 0108
ENCODING 264
SWIDTH 648 0
DWIDTH 24 0
BBX 22 33 1 0
BITMAP
003E00
007300
007F80
0080C0
010040
000000
000000
00FF0C
03FFDC
07806C
0F007C
1E003C
3C001C
3C000C
7C000C
78000C
F80000
F00000
F00000
F00000
F00000
F00000
F80000
F80000
F80000
7C0000
7C0004
3C0008
1E0008
1F0030
0F8060
03E1C0
00FF00
ENDCHAR
STARTCHAR 0109
ENCODING 265
SWIDTH 432 0
DWIDTH 16 0
BBX 15 25 1 0
BITMAP
03F0
03B0
0778
043C
1802
0000
0000
03E0
0FF0
1C0C
380E
701E
F00E
F000
E000
E000
E000
F000
F000
F000
F800
7C04
3E08
1FF8
07E0
ENDCHAR
STARTCHAR 010A
ENCODING 266
SWIDTH 648 0
DWIDTH 24 0
BBX 22 33 1 0
BITMAP
001E00
001E00
001E00
000000
000000
000000
000000
00FF0C
03FFDC
07806C
0F007C
1E003C
3C001C
3C000C
7C000C
78000C
F80000
F00000
F00000
F00000
F00000
F00000
F80000
F80000
F80000
7C0000
7C0004
3C0008
1E0008
1F0030
0F8060
03E1C0
00FF00
ENDCHAR
STARTCHAR 010B
ENCODING 267
SWIDTH 432 0
DWIDTH 16 0
BBX 15 25 1 0
BITMAP
01E0
01E0
01E0
01E0
0000
0000
0000
03E0
0FF0
1C0C
380E
701E
F00E
F000
E000
E000
E000
F000
F000
F000
F800
7C04
3E08
1FF8
07E0
ENDCHAR
STARTCHAR 010C
ENCODING 268
SWIDTH 648 0
DWIDTH 24 0
BBX 22 34 1 0
BITMAP
010040
00F180
007B80
007700
003E00
000000
000000
000000
00FF0C
03FFDC
07806C
0F007C
1E003C
3C001C
3C000C
7C000C
78000C
F80000
F00000
F00000
F00000
F00000
F00000
F80000
F80000
F80000
7C0000
7C0004
3C0008
1E0008
1F0030
0F8060
03E1C0
00FF00
ENDCHAR
STARTCHAR 010D
ENCODING 269
SWIDTH 432 0
DWIDTH 16 0
BBX 15 26 1 0
BITMAP
1002
0C0C
07B8
0370
03F0
0000
0000
0000
03E0
0FF0
1C0C
380E
701E
F00E
F000
E000
E000
E000
F000
F000
F000
F800
7C04
3E08
1FF8
07E0
ENDCHAR
STARTCHAR 010E
ENCODING 270
SWIDTH 729 0
DWIDTH 27 0
BBX 25 34 1 0
BITMAP
01004000
00F18000
007B8000
00770000
003E0000
00000000
00000000
00000000
FFFC0000
FFFF8000
1E01F000
1E00F000
1E007800
1E003E00
1E001E00
1E001E00
1E000F00
1E000F00
1E000F80
1E000F80
1E000F80
1E000F80
1E000F80
1E000F00
1E000F00
1E000F00
1E000E00
1E001E00
1E003C00
1E007C00
1E00F000
1E01E000
3C07C000
FFFC0000
ENDCHAR
STARTCHAR 010F
ENCODING 271
SWIDTH 567 0
DWIDTH 21 0
BBX 23 27 1 0
BITMAP
000188
001F9E
001FBE
0007BA
00078A
000786
00078C
000788
000790
03F780
07FF80
1C0F80
380780
380780
700780
E00780
E00780
E00780
E00780
E00780
F00780
F00780
F00780
7C0B80
7C1780
3FF780
0FC7C0
ENDCHAR
STARTCHAR 0110
ENCODING 272
SWIDTH 729 0
DWIDTH 27 0
BBX 25 26 1 0
BITMAP
FFFC0000
FFFF8000
1E01F000
1E00F000
1E007800
1E003E00
1E001E00
1E001E00
1E000F00
1E000F00
1E000F80
1E000F80
FFE00F80
0E000F80
1E000F80
1E000F00
1E000F00
1E000F00
1E000E00
1E001E00
1E003C00
1E007C00
1E00F000
1E01E000
3C07C000
FFFC0000
ENDCHAR
STARTCHAR 0111
ENCODING 273
SWIDTH 567 0
DWIDTH 21 0
BBX 19 27 1 0
BITMAP
000180
001F80
001F80
000780
000780
000780
00FFE0
000380
000780
03F780
07FF80
1C0F80
380780
380780
700780
E00780
E00780
E00780
E00780
E00780
F00780
F00780
F00780
7C0B80
7C1780
3FF780
0FC7C0
ENDCHAR
STARTCHAR 0112
ENCODING 274
SWIDTH 648 0
DWIDTH 24 0
BBX 22 32 1 0
BITMAP
03FFC0
03FFC0
000000
000000
000000
000000
FFFFF0
FFFFF8
1E0078
1E0038
1E0038
1E0018
1E0018
1E0008
1E0108
1E0100
1E0300
1E0700
1FFF00
1E0F00
1E0300
1E0300
1E0100
1E010C
1E000C
1E0008
1E0008
1E0008
1E0018
1E0078
1C00F8
FFFFF0
ENDCHAR
STARTCHAR 0113
ENCODING 275
SWIDTH 486 0
DWIDTH 18 0
BBX 15 24 1 0
BITMAP
1FFC
1FFC
0000
0000
0000
0000
03E0
0FF0
1C3C
381E
381E
700E
F00E
FFFE
E000
F000
F000
F000
F800
F800
3C02
3E0C
1FFC
07F0
ENDCHAR
STARTCHAR 0114
ENCODING 276
SWIDTH 648 0
DWIDTH 24 0
BBX 22 33 1 0
BITMAP
018180
01C780
00FF00
007E00
001C00
000000
000000
FFFFF0
FFFFF8
1E0078
1E0038
1E0038
1E0018
1E0018
1E0008
1E0108
1E0100
1E0300
1E0700
1FFF00
1E0F00
1E0300
1E0300
1E0100
1E010C
1E000C
1E0008
1E0008
1E0008
1E0018
1E0078
1C00F8
FFFFF0
ENDCHAR
STARTCHAR 0115
ENCODING 277
SWIDTH 486 0
DWIDTH 18 0
BBX 15 25 1 0
BITMAP
1008
1C78
0FF0
0FF0
01C0
0000
0000
03E0
0FF0
1C3C
381E
381E
700E
F00E
FFFE
E000
F000
F000
F000
F800
F800
3C02
3E0C
1FFC
07F0
ENDCHAR
STARTCHAR 0116
ENCODING 278
SWIDTH 648 0
DWIDTH 24 0
BBX 22 33 1 0
BITMAP
003C00
003C00
003C00
000000
000000
000000
000000
FFFFF0
FFFFF8
1E0078
1E0038
1E0038
1E0018
1E0018
1E0008
1E0108
1E0100
1E0300
1E0700
1FFF00
1E0F00
1E0300
1E0300
1E0100
1E010C
1E000C
1E0008
1E0008
1E0008
1E0018
1E0078
1C00F8
FFFFF0
ENDCHAR
STARTCHAR 0117
ENCODING 279
SWIDTH 486 0
DWIDTH 18 0
BBX 15 25 1 0
BITMAP
03C0
03C0
03C0
03C0
0000
0000
0000
03E0
0FF0
1C3C
381E
381E
700E
F00E
FFFE
E000
F000
F000
F000
F800
F800
3C02
3E0C
1FFC
07F0
ENDCHAR
STARTCHAR 0118
ENCODING 280
SWIDTH 648 0
DWIDTH 24 0
BBX 22 34 1 -8
BITMAP
FFFFF0
FFFFF8
1E0078
1E0038
1E0038
1E0018
1E0018
1E0008
1E0108
1E0100
1E0300
1E0700
1FFF00
1E0F00
1E0300
1E0300
1E0100
1E010C
1E000C
1E0008
1E0008
1E0008
1E0018
1E0078
1C00F0
FFFFF0
000030
0000C0
0001C0
000180
000180
0001C0
0001F0
000040
ENDCHAR
STARTCHAR 0119
ENCODING 281
SWIDTH 486 0
DWIDTH 18 0
BBX 15 25 1 -7
BITMAP
03E0
0FF0
1C3C
381E
381E
700E
F00E
FFFE
E000
F000
F000
F000
F800
F800
3C02
3E0E
1FFC
07F0
0040
0380
0380
0300
0700
0300
03E0
ENDCHAR
STARTCHAR 011A
ENCODING 282
SWIDTH 648 0
DWIDTH 24 0
BBX 22 34 1 0
BITMAP
020040
01E180
00F700
006E00
007E00
000000
000000
000000
FFFFF0
FFFFF8
1E0078
1E0038
1E0038
1E0018
1E0018
1E0008
1E0108
1E0100
1E0300
1E0700
1FFF00
1E0F00
1E0300
1E0300
1E0100
1E010C
1E000C
1E0008
1E0008
1E0008
1E0018
1E0078
1C00F8
FFFFF0
ENDCHAR
STARTCHAR 011B
ENCODING 283
SWIDTH 486 0
DWIDTH 18 0
BBX 15 26 1 0
BITMAP
0004
1808
0FF0
0670
03E0
0000
0000
0000
03E0
0FF0
1C3C
381E
381E
700E
F00E
FFFE
E000
F000
F000
F000
F800
F800
3C02
3E0C
1FFC
07F0
ENDCHAR
STARTCHAR 011C
ENCODING 284
SWIDTH 756 0
DWIDTH 28 0
BBX 26 33 1 0
BITMAP
001F0000
00398000
0077C000
00404000
00802000
00000000
00080000
007F8600
01FFCE00
07807600
0F003E00
1E001E00
1C000E00
3C000E00
7C000E00
78000600
F8000000
F8000000
F8000000
F8000000
F800FFC0
F800FFC0
F8003F00
F8000E00
F8000E00
7C000E00
3C000E00
3C000E00
1E001600
1F800E00
07803E00
03F0FE00
007FC200
ENDCHAR
STARTCHAR 011D
ENCODING 285
SWIDTH 459 0
DWIDTH 17 0
BBX 19 34 0 -9
BITMAP
03E000
073000
0EF800
0C3800
100400
000000
0007E0
01E6E0
0FF8E0
1C3C00
381E00
381E00
780F00
700F00
780F00
780F00
781E00
3C1E00
0E7800
07F000
0E0000
300000
700000
700000
7FFE00
3FFF00
3FFFC0
7007C0
6001C0
E00180
E00380
F00700
7FFC00
1FF000
ENDCHAR
STARTCHAR 011E
ENCODING 286
SWIDTH 756 0
DWIDTH 28 0
BBX 26 33 1 0
BITMAP
00404000
0071C000
007FC000
001F0000
000E0000
00000000
00080000
007F8600
01FFCE00
07807600
0F003E00
1E001E00
1C000E00
3C000E00
7C000E00
78000600
F8000000
F8000000
F8000000
F8000000
F800FFC0
F800FFC0
F8003F00
F8000E00
F8000E00
7C000E00
3C000E00
3C000E00
1E001600
1F800E00
07803E00
03F0FE00
007FC200
ENDCHAR
STARTCHAR 011F
ENCODING 287
SWIDTH 459 0
DWIDTH 17 0
BBX 19 34 0 -9
BITMAP
100800
0E3800
0FF800
0FF800
01C000
000000
0007E0
01E6E0
0FF8E0
1C3C00
381E00
381E00
780F00
700F00
780F00
780F00
781E00
3C1E00
0E7800
07F000
0E0000
300000
700000
700000
7FFE00
3FFF00
3FFFC0
7007C0
6001C0
E00180
E00380
F00700
7FFC00
1FF000
ENDCHAR
STARTCHAR 0120
ENCODING 288
SWIDTH 756 0
DWIDTH 28 0
BBX 26 33 1 0
BITMAP
000E0000
000E0000
000E0000
00000000
00000000
00000000
00080000
007F8600
01FFCE00
07807600
0F003E00
1E001E00
1C000E00
3C000E00
7C000E00
78000600
F8000000
F8000000
F8000000
F8000000
F800FFC0
F800FFC0
F8003F00
F8000E00
F8000E00
7C000E00
3C000E00
3C000E00
1E001600
1F800E00
07803E00
03F0FE00
007FC200
ENDCHAR
STARTCHAR 0121
ENCODING 289
SWIDTH 459 0
DWIDTH 17 0
BBX 19 34 0 -9
BITMAP
01C000
01C000
01C000
01C000
000000
000000
0007E0
01E6E0
0FF8E0
1C3C00
381E00
381E00
780F00
700F00
780F00
780F00
781E00
3C1E00
0E7800
07F000
0E0000
300000
700000
700000
7FFE00
3FFF00
3FFFC0
7007C0
6001C0
E00180
E00380
F00700
7FFC00
1FF000
ENDCHAR
STARTCHAR 0122
ENCODING 290
SWIDTH 756 0
DWIDTH 28 0
BBX 26 36 1 -10
BITMAP
00080000
007F8600
01FFCE00
07807600
0F003E00
1E001E00
1C000E00
3C000E00
7C000E00
78000600
F8000000
F8000000
F8000000
F8000000
F800FFC0
F800FFC0
F8003F00
F8000E00
F8000E00
7C000E00
3C000E00
3C000E00
1E001600
1F800E00
07803E00
03F0FE00
007FC200
00000000
000C0000
000E0000
001F0000
001D0000
000D0000
00020000
00060000
00040000
ENDCHAR
STARTCHAR 0123
ENCODING 291
SWIDTH 459 0
DWIDTH 17 0
BBX 19 38 0 -9
BITMAP
004000
00C000
018000
014000
017000
01F000
01E000
004000
000000
000000
0007E0
01E6E0
0FF8E0
1C3C00
381E00
381E00
780F00
700F00
780F00
780F00
781E00
3C1E00
0E7800
07F000
0E0000
300000
700000
700000
7FFE00
3FFF00
3FFFC0
7007C0
6001C0
E00180
E00380
F00700
7FFC00
1FF000
ENDCHAR
STARTCHAR 0124
ENCODING 292
SWIDTH 756 0
DWIDTH 28 0
BBX 26 33 1 0
BITMAP
001F0000
00398000
0077C000
00404000
00802000
00000000
00000000
FFE0FFC0
FFC07FC0
1E001E00
1E001E00
1E001E00
1E001E00
1E001E00
1E001E00
1E001E00
1E001E00
1E001E00
1E001E00
1FFFFE00
1C000E00
1E001E00
1E001E00
1E001E00
1E001E00
1E001E00
1E001E00
1E001E00
1E001E00
1E001E00
1E001E00
3F003E00
FFE0FFC0
ENDCHAR
STARTCHAR 0125
ENCODING 293
SWIDTH 567 0
DWIDTH 21 0
BBX 21 33 0 0
BITMAP
1F0000
398000
77C000
404000
802000
000000
060000
7E0000
3E0000
0E0000
0E0000
0E0000
0E0000
0E0000
0E0000
0E3E00
0E3F00
0FC7C0
0F83E0
0D03E0
0E01E0
0E01E0
0E01E0
0E01E0
0E01E0
0E01E0
0E01E0
0E01E0
0E01E0
0E01E0
0E01E0
1E03E0
7FCFF8
ENDCHAR
STARTCHAR 0126
ENCODING 294
SWIDTH 756 0
DWIDTH 28 0
BBX 26 26 1 0
BITMAP
FFE0FFC0
FFC07FC0
1E001E00
1E001E00
1E001E00
1E001E00
FFFFFFC0
FFFFFFC0
1E001E00
1E001E00
1E001E00
1E001E00
1FFFFE00
1C000E00
1E001E00
1E001E00
1E001E00
1E001E00
1E001E00
1E001E00
1E001E00
1E001E00
1E001E00
1E001E00
3F003E00
FFE0FFC0
ENDCHAR
STARTCHAR 0127
ENCODING 295
SWIDTH 567 0
DWIDTH 21 0
BBX 20 27 1 0
BITMAP
0C0000
FC0000
7C0000
1C0000
1C0000
1C0000
FFE000
0C0000
1C0000
1C7C00
1C7E00
1F8F80
1F07C0
1A07C0
1C03C0
1C03C0
1C03C0
1C03C0
1C03C0
1C03C0
1C03C0
1C03C0
1C03C0
1C03C0
1C03C0
3C07C0
FF9FF0
ENDCHAR
STARTCHAR 0128
ENCODING 296
SWIDTH 351 0
DWIDTH 13 0
BBX 13 34 0 0
BITMAP
1008
7E08
7FF8
8FF0
01E0
0000
0000
0000
7FF0
7FF0
0F00
0F00
0F00
0F00
0F00
0F00
0F00
0F00
0F00
0F00
0F00
0F00
0F00
0F00
0F00
0F00
0F00
0F00
0F00
0F00
0F00
0F00
0F80
7FF0
ENDCHAR
STARTCHAR 0129
ENCODING 297
SWIDTH 297 0
DWIDTH 11 0
BBX 14 26 -1 0
BITMAP
1804
3E04
7FF8
4FF0
87E0
0000
0000
0000
0100
0F00
1F00
0700
0700
0700
0700
0700
0700
0700
0700
0700
0700
0700
0700
0700
0780
3FE0
ENDCHAR
STARTCHAR 012A
ENCODING 298
SWIDTH 351 0
DWIDTH 13 0
BBX 11 32 1 0
BITMAP
FFE0
FFE0
0000
0000
0000
0000
FFE0
FFE0
1E00
1E00
1E00
1E00
1E00
1E00
1E00
1E00
1E00
1E00
1E00
1E00
1E00
1E00
1E00
1E00
1E00
1E00
1E00
1E00
1E00
1E00
1F00
FFE0
ENDCHAR
STARTCHAR 012B
ENCODING 299
SWIDTH 297 0
DWIDTH 11 0
BBX 11 24 0 0
BITMAP
FFE0
FFE0
0000
0000
0000
0000
0200
1E00
3E00
0E00
0E00
0E00
0E00
0E00
0E00
0E00
0E00
0E00
0E00
0E00
0E00
0E00
0F00
7FC0
ENDCHAR
STARTCHAR 012C
ENCODING 300
SWIDTH 351 0
DWIDTH 13 0
BBX 11 33 1 0
BITMAP
C040
E3C0
7F80
1F00
0E00
0000
0000
FFE0
FFE0
1E00
1E00
1E00
1E00
1E00
1E00
1E00
1E00
1E00
1E00
1E00
1E00
1E00
1E00
1E00
1E00
1E00
1E00
1E00
1E00
1E00
1E00
1F00
FFE0
ENDCHAR
STARTCHAR 012D
ENCODING 301
SWIDTH 297 0
DWIDTH 11 0
BBX 9 25 1 0
BITMAP
8080
E380
FF80
FF80
1C00
0000
0000
0400
3C00
7C00
1C00
1C00
1C00
1C00
1C00
1C00
1C00
1C00
1C00
1C00
1C00
1C00
1C00
1E00
FF80
ENDCHAR
STARTCHAR 012E
ENCODING 302
SWIDTH 351 0
DWIDTH 13 0
BBX 11 34 1 -8
BITMAP
FFE0
FFE0
1E00
1E00
1E00
1E00
1E00
1E00
1E00
1E00
1E00
1E00
1E00
1E00
1E00
1E00
1E00
1E00
1E00
1E00
1E00
1E00
1E00
1E00
1F00
FFE0
0040
0380
0200
0600
0E00
0E00
07E0
0100
ENDCHAR
STARTCHAR 012F
ENCODING 303
SWIDTH 297 0
DWIDTH 11 0
BBX 9 33 1 -8
BITMAP
1C00
1C00
1C00
1C00
0000
0000
0000
0400
3C00
7C00
1C00
1C00
1C00
1C00
1C00
1C00
1C00
1C00
1C00
1C00
1C00
1C00
1C00
1E00
FF80
0180
0600
0C00
1C00
1C00
1C00
1F80
0400
ENDCHAR
STARTCHAR 0130
ENCODING 304
SWIDTH 351 0
DWIDTH 13 0
BBX 11 33 1 0
BITMAP
1E00
1E00
1E00
0000
0000
0000
0000
FFE0
FFE0
1E00
1E00
1E00
1E00
1E00
1E00
1E00
1E00
1E00
1E00
1E00
1E00
1E00
1E00
1E00
1E00
1E00
1E00
1E00
1E00
1E00
1E00
1F00
FFE0
ENDCHAR
STARTCHAR 0131
ENCODING 305
SWIDTH 297 0
DWIDTH 11 0
BBX 9 18 1 0
BITMAP
0400
3C00
7C00
1C00
1C00
1C00
1C00
1C00
1C00
1C00
1C00
1C00
1C00
1C00
1C00
1C00
1E00
FF80
ENDCHAR
STARTCHAR 0132
ENCODING 306
SWIDTH 891 0
DWIDTH 33 0
BBX 32 27 1 -1
BITMAP
FFE00FFF
FFE007FF
1E0000F0
1E0000F0
1E0000F0
1E0000F0
1E0000F0
1E0000F0
1E0000F0
1E0000F0
1E0000F0
1E0000F0
1E0000F0
1E0000F0
1E0000F0
1E0000F0
1E0000F0
1E0000F0
1E0000F0
1E0F00F0
1E0F00F0
1E0F00E0
1E0E01C0
1E0701C0
1F0383C0
FFE0FE00
00001000
ENDCHAR
STARTCHAR 0133
ENCODING 307
SWIDTH 567 0
DWIDTH 21 0
BBX 18 34 1 -9
BITMAP
1C0780
1C0780
1C0780
1C0780
000000
000000
000000
0400C0
3C0FC0
7C1FC0
1C03C0
1C03C0
1C03C0
1C03C0
1C03C0
1C03C0
1C03C0
1C03C0
1C03C0
1C03C0
1C03C0
1C03C0
1C03C0
1E03C0
FF83C0
0003C0
0003C0
0003C0
0003C0
01C3C0
01E380
01E380
007E00
003C00
ENDCHAR
STARTCHAR 0134
ENCODING 308
SWIDTH 567 0
DWIDTH 21 0
BBX 19 34 1 -1
BITMAP
001F00
003980
0077C0
004040
008020
000000
000000
00FFE0
007FE0
000E00
000E00
000E00
000E00
000E00
000E00
000E00
000E00
000E00
000E00
000E00
000E00
000E00
000E00
000E00
000E00
000E00
E00E00
E00E00
E00E00
E01C00
E03C00
707800
1FE000
030000
ENDCHAR
STARTCHAR 0135
ENCODING 309
SWIDTH 270 0
DWIDTH 10 0
BBX 14 34 -3 -9
BITMAP
03E0
0730
0EF8
0C38
1004
0000
0000
0040
07C0
0FC0
01C0
01C0
01C0
01C0
01C0
01C0
01C0
01C0
01C0
01C0
01C0
01C0
01C0
01C0
01C0
01C0
01C0
01C0
01C0
E1C0
F1C0
F1C0
3F00
1E00
ENDCHAR
STARTCHAR 0136
ENCODING 310
SWIDTH 729 0
DWIDTH 27 0
BBX 26 35 1 -10
BITMAP
FFC1FF00
FFC0FF00
1C007000
1C007000
1C006000
1C01C000
1C018000
1C070000
1C0E0000
1C0C0000
1C3C0000
1C7C0000
1C7E0000
1C9F0000
1D8F0000
1F0F8000
1C07C000
1C03C000
1C03E000
1C01F000
1C01F000
1C00F800
1C007C00
1C007E00
3E003E00
FFC01FC0
00000000
000C0000
000E0000
001F0000
001D0000
000D0000
00020000
00060000
00040000
ENDCHAR
STARTCHAR 0137
ENCODING 311
SWIDTH 567 0
DWIDTH 21 0
BBX 20 37 1 -10
BITMAP
0C0000
FC0000
7C0000
1C0000
1C0000
1C0000
1C0000
1C0000
1C0000
1C1FC0
1C1FC0
1C0E00
1C0C00
1C0800
1C3000
1C6000
1C6000
1DF000
1F7000
1A7800
1C3C00
1C1E00
1C1E00
1C0F00
1C0F80
3C07C0
FF81F0
000000
003000
007800
007C00
007C00
003C00
000800
001000
001000
004000
ENDCHAR
STARTCHAR 0138
ENCODING 312
SWIDTH 567 0
DWIDTH 21 0
BBX 20 18 1 0
BITMAP
041FC0
3C1FC0
7C0E00
1C0C00
1C0800
1C3000
1C6000
1C6000
1DF000
1F7000
1A7800
1C3C00
1C1E00
1C1E00
1C0F00
1C0F80
3C07C0
FF81F0
ENDCHAR
STARTCHAR 0139
ENCODING 313
SWIDTH 648 0
DWIDTH 24 0
BBX 22 35 1 0
BITMAP
01C000
01C000
03C000
07C000
070000
080000
100000
000000
000000
FFE000
FFC000
1E0000
1E0000
1E0000
1E0000
1E0000
1E0000
1E0000
1E0000
1E0000
1E0000
1E0000
1E0000
1E0000
1E0000
1E0000
1E000C
1E000C
1E0008
1E0008
1E0018
1E0038
1E0078
1C00F8
FFFFF0
ENDCHAR
STARTCHAR 013A
ENCODING 314
SWIDTH 270 0
DWIDTH 10 0
BBX 9 35 1 0
BITMAP
0300
0780
0780
0F00
1E00
3000
0000
0000
0C00
FC00
FC00
1C00
1C00
1C00
1C00
1C00
1C00
1C00
1C00
1C00
1C00
1C00
1C00
1C00
1C00
1C00
1C00
1C00
1C00
1C00
1C00
1C00
1C00
3C00
FF80
ENDCHAR
STARTCHAR 013B
ENCODING 315
SWIDTH 648 0
DWIDTH 24 0
BBX 22 36 1 -10
BITMAP
FFE000
FFC000
1E0000
1E0000
1E0000
1E0000
1E0000
1E0000
1E0000
1E0000
1E0000
1E0000
1E0000
1E0000
1E0000
1E0000
1E0000
1E000C
1E000C
1E0008
1E0008
1E0018
1E0038
1E0078
1C00F8
FFFFF0
000000
001000
003C00
007E00
007600
001600
000C00
000800
000000
002000
ENDCHAR
STARTCHAR 013C
ENCODING 316
SWIDTH 270 0
DWIDTH 10 0
BBX 9 36 1 -10
BITMAP
0C00
FC00
FC00
1C00
1C00
1C00
1C00
1C00
1C00
1C00
1C00
1C00
1C00
1C00
1C00
1C00
1C00
1C00
1C00
1C00
1C00
1C00
1C00
1C00
1C00
3C00
FF80
0000
1800
1C00
3E00
3A00
1A00
0400
0C00
0800
ENDCHAR
STARTCHAR 013D
ENCODING 317
SWIDTH 648 0
DWIDTH 24 0
BBX 22 27 1 0
BITMAP
0000C0
FFE1E0
FFC1F0
1E01F0
1E00F0
1E0060
1E0040
1E0040
1E0100
1E0000
1E0000
1E0000
1E0000
1E0000
1E0000
1E0000
1E0000
1E0000
1E000C
1E000C
1E0008
1E0008
1E0018
1E0038
1E0078
1C00F8
FFFFF0
ENDCHAR
STARTCHAR 013E
ENCODING 318
SWIDTH 297 0
DWIDTH 11 0
BBX 13 27 1 0
BITMAP
0C60
FC70
FCF8
1CE8
1C68
1C10
1C30
1C20
1C00
1C00
1C00
1C00
1C00
1C00
1C00
1C00
1C00
1C00
1C00
1C00
1C00
1C00
1C00
1C00
1C00
3C00
FF80
ENDCHAR
STARTCHAR 013F
ENCODING 319
SWIDTH 648 0
DWIDTH 24 0
BBX 22 26 1 0
BITMAP
FFE000
FFC000
1E0000
1E0000
1E0000
1E0000
1E0000
1E0000
1E00F0
1E00F0
1E00F0
1E00F0
1E0000
1E0000
1E0000
1E0000
1E0000
1E000C
1E000C
1E0008
1E0008
1E0018
1E0038
1E0078
1C00F8
FFFFF0
ENDCHAR
STARTCHAR 0140
ENCODING 320
SWIDTH 324 0
DWIDTH 12 0
BBX 12 27 1 0
BITMAP
0C00
FC00
FC00
1C00
1C00
1C00
1C00
1C00
1C00
1C00
1C00
1C00
1C00
1CF0
1CF0
1CF0
1C00
1C00
1C00
1C00
1C00
1C00
1C00
1C00
1C00
3C00
FF80
ENDCHAR
STARTCHAR 0141
ENCODING 321
SWIDTH 648 0
DWIDTH 24 0
BBX 23 26 0 0
BITMAP
7FF000
7FE000
0F0000
0F0000
0F0000
0F0000
0F0000
0F1800
0F3800
0F6000
0FC000
0F0000
0F0000
3B0000
770000
CF0000
0F0000
0F0006
0F0006
0F0004
0F0004
0F000C
0F001C
0F003C
0E007C
7FFFF8
ENDCHAR
STARTCHAR 0142
ENCODING 322
SWIDTH 270 0
DWIDTH 10 0
BBX 13 27 -1 0
BITMAP
0300
3F00
3F00
0700
0700
0700
0700
0700
0718
0718
0770
07C0
0780
0700
3B00
3700
E700
8700
0700
0700
0700
0700
0700
0700
0700
0F00
3FE0
ENDCHAR
STARTCHAR 0143
ENCODING 323
SWIDTH 756 0
DWIDTH 28 0
BBX 26 35 1 0
BITMAP
00018000
0003C000
0007C000
00078000
000F0000
00180000
00200000
00000000
00000000
FE007FC0
7E003FC0
1F800E00
1F800600
1F800600
1BE00600
1BF00600
19F80600
187C0600
187C0600
183E0600
181F0600
180F8600
180FC600
1807C600
1803E600
1801F600
1801F600
1800F600
18007E00
18003E00
18001E00
1C000E00
1C000E00
3C000600
FF800200
ENDCHAR
STARTCHAR 0144
ENCODING 324
SWIDTH 567 0
DWIDTH 21 0
BBX 20 27 1 0
BITMAP
000C00
001E00
003E00
003C00
007800
006000
018000
000000
000000
043E00
3C7E00
7D8F80
1F07C0
1A07C0
1C03C0
1C03C0
1C03C0
1C03C0
1C03C0
1C03C0
1C03C0
1C03C0
1C03C0
1C03C0
1C03C0
3C07C0
FF9FF0
ENDCHAR
STARTCHAR 0145
ENCODING 325
SWIDTH 756 0
DWIDTH 28 0
BBX 26 35 1 -10
BITMAP
FE007FC0
7E003FC0
1F800E00
1F800600
1F800600
1BE00600
1BF00600
19F80600
187C0600
187C0600
183E0600
181F0600
180F8600
180FC600
1807C600
1803E600
1801F600
1801F600
1800F600
18007E00
18003E00
18001E00
1C000E00
1C000E00
3C000600
FF800200
00000000
000C0000
000E0000
001F0000
001D0000
000D0000
00020000
00060000
00040000
ENDCHAR
STARTCHAR 0146
ENCODING 326
SWIDTH 567 0
DWIDTH 21 0
BBX 20 27 1 -10
BITMAP
043E00
3C7E00
7D8F80
1F07C0
1A07C0
1C03C0
1C03C0
1C03C0
1C03C0
1C03C0
1C03C0
1C03C0
1C03C0
1C03C0
1C03C0
1C03C0
3C07C0
FF9FF0
000000
006000
007000
00F800
00E800
006800
001000
003000
002000
ENDCHAR
STARTCHAR 0147
ENCODING 327
SWIDTH 756 0
DWIDTH 28 0
BBX 26 34 1 0
BITMAP
00802000
0070C000
007DC000
00338000
001F0000
00000000
00000000
00000000
FE007FC0
7E003FC0
1F800E00
1F800600
1F800600
1BE00600
1BF00600
19F80600
187C0600
187C0600
183E0600
181F0600
180F8600
180FC600
1807C600
1803E600
1801F600
1801F600
1800F600
18007E00
18003E00
18001E00
1C000E00
1C000E00
3C000600
FF800200
ENDCHAR
STARTCHAR 0148
ENCODING 328
SWIDTH 567 0
DWIDTH 21 0
BBX 20 26 1 0
BITMAP
040100
020200
03EE00
019C00
00F800
000000
000000
000000
043E00
3C7E00
7D8F80
1F07C0
1A07C0
1C03C0
1C03C0
1C03C0
1C03C0
1C03C0
1C03C0
1C03C0
1C03C0
1C03C0
1C03C0
1C03C0
3C07C0
FF9FF0
ENDCHAR
STARTCHAR 014A
ENCODING 330
SWIDTH 756 0
DWIDTH 28 0
BBX 26 36 1 -10
BITMAP
FE007FC0
7E003FC0
1F800E00
1F800E00
1F800E00
1BE00E00
1BF00E00
19F80E00
18FC0E00
187C0E00
183E0E00
181F0E00
181F8E00
180FCE00
1807CE00
1803EE00
1801FE00
1801FE00
1800FE00
18007E00
18007E00
18003E00
1C001E00
1C000E00
3C000E00
FF800E00
00000E00
00000E00
000C0E00
000E0E00
000E0E00
000C0E00
000E0E00
000F1800
0007F000
0001F000
ENDCHAR
STARTCHAR 014B
ENCODING 331
SWIDTH 567 0
DWIDTH 21 0
BBX 18 27 1 -9
BITMAP
043E00
3C7E00
7D8F80
1F07C0
1A03C0
1C03C0
1C03C0
1C03C0
1C03C0
1C03C0
1C03C0
1C03C0
1C03C0
1C03C0
1C03C0
1C03C0
1E03C0
FF83C0
0003C0
0003C0
0003C0
0003C0
00E3C0
00E3C0
00E380
007E00
003C00
ENDCHAR
STARTCHAR 014C
ENCODING 332
SWIDTH 729 0
DWIDTH 27 0
BBX 25 33 1 -1
BITMAP
01FFC000
01FFC000
00000000
00000000
00000000
000C0000
007F8000
01FFE000
07807000
0E007800
1E003C00
1C001E00
3C001E00
7C000F00
78000F00
78000F80
F8000F80
F8000F80
F8000F80
F8000F80
F8000F80
F8000F80
FC000F00
7C000F00
7C000F00
3C000E00
3C001E00
1E001E00
0F007800
07807000
03C0F000
007F8000
000C0000
ENDCHAR
STARTCHAR 014D
ENCODING 333
SWIDTH 513 0
DWIDTH 19 0
BBX 17 25 1 -1
BITMAP
1FFE00
1FFE00
000000
000000
000000
000000
03E000
0FF800
1C1E00
380E00
780E00
F00700
F00780
F00780
F00780
F00780
F00780
F00780
F80700
780700
3C0E00
3C0E00
1C1C00
07F000
008000
ENDCHAR
STARTCHAR 014E
ENCODING 334
SWIDTH 729 0
DWIDTH 27 0
BBX 25 34 1 -1
BITMAP
0080C000
00E3C000
007F8000
003E0000
000E0000
00000000
000C0000
007F8000
01FFE000
07807000
0E007800
1E003C00
1C001E00
3C001E00
7C000F00
78000F00
78000F80
F8000F80
F8000F80
F8000F80
F8000F80
F8000F80
F8000F80
FC000F00
7C000F00
7C000F00
3C000E00
3C001E00
1E001E00
0F007800
07807000
03C0F000
007F8000
000C0000
ENDCHAR
STARTCHAR 014F
ENCODING 335
SWIDTH 513 0
DWIDTH 19 0
BBX 17 26 1 -1
BITMAP
080400
0E3C00
07F800
07F800
00E000
000000
000000
03E000
0FF800
1C1E00
380E00
780E00
F00700
F00780
F00780
F00780
F00780
F00780
F00780
F80700
780700
3C0E00
3C0E00
1C1C00
07F000
008000
ENDCHAR
STARTCHAR 0150
ENCODING 336
SWIDTH 729 0
DWIDTH 27 0
BBX 25 36 1 -1
BITMAP
000C7000
001E7000
003CF000
0079E000
0071C000
00820000
00820000
00000000
000C0000
007F8000
01FFE000
07807000
0E007800
1E003C00
1C001E00
3C001E00
7C000F00
78000F00
78000F80
F8000F80
F8000F80
F8000F80
F8000F80
F8000F80
F8000F80
FC000F00
7C000F00
7C000F00
3C000E00
3C001E00
1E001E00
0F007800
07807000
03C0F000
007F8000
000C0000
ENDCHAR
STARTCHAR 0151
ENCODING 337
SWIDTH 513 0
DWIDTH 19 0
BBX 17 28 1 -1
BITMAP
00C300
01E780
03EF80
038E00
030C00
061800
082000
000000
000000
03E000
0FF800
1C1E00
380E00
780E00
F00700
F00780
F00780
F00780
F00780
F00780
F00780
F80700
780700
3C0E00
3C0E00
1C1C00
07F000
008000
ENDCHAR
STARTCHAR 0152
ENCODING 338
SWIDTH 1054 0
DWIDTH 39 0
BBX 37 26 1 0
BITMAP
001FFFFFE0
00FFFFFFE0
03C03C00F0
07803C0070
1F003C0070
1C003C0030
3C003C0030
7C003C0010
78003C0610
F8003C0600
F8003C0600
F8003C0E00
F8003FFE00
F8003C1E00
F8003C0E00
F8003C0600
F8003C0600
78003C0618
7C003C0018
3C003C0010
1C003C0010
1E003C0010
07803C0070
03C03C00F0
01F03001F0
001FFFFFE0
ENDCHAR
STARTCHAR 0153
ENCODING 339
SWIDTH 810 0
DWIDTH 30 0
BBX 28 19 1 -1
BITMAP
03E03E00
0FF07F80
1C1CC1C0
380FC0E0
700FC0E0
E00F8070
E0078070
E007FFF0
E0060000
E0078000
E0078000
E0078000
F007C000
F007C000
780FC020
3C0FF040
1C1CFFC0
07F07F00
00800000
ENDCHAR
STARTCHAR 0154
ENCODING 340
SWIDTH 702 0
DWIDTH 26 0
BBX 25 35 1 0
BITMAP
00060000
000F0000
001F0000
003E0000
00380000
00400000
00800000
00000000
00000000
FFFE0000
FFFFC000
1E01F000
1E00F000
1E00F000
1E007000
1E007800
1E007000
1E007000
1E00F000
1E01E000
1E03C000
1FFFC000
1C0F8000
1E07C000
1E03C000
1E01E000
1E01E000
1E01E000
1E00F000
1E00F000
1E00F000
1E007800
1E007800
1F007C00
FFE03F80
ENDCHAR
STARTCHAR 0155
ENCODING 341
SWIDTH 432 0
DWIDTH 16 0
BBX 15 27 1 0
BITMAP
0030
0078
00F8
01F0
01C0
0180
0600
0000
0000
043C
3C7E
7C9E
1D1E
1E0E
1C00
1C00
1C00
1C00
1C00
1C00
1C00
1C00
1C00
1C00
1C00
1E00
FF80
ENDCHAR
STARTCHAR 0156
ENCODING 342
SWIDTH 702 0
DWIDTH 26 0
BBX 25 36 1 -10
BITMAP
FFFE0000
FFFFC000
1E01F000
1E00F000
1E00F000
1E007000
1E007800
1E007000
1E007000
1E00F000
1E01E000
1E03C000
1FFFC000
1C0F8000
1E07C000
1E03C000
1E01E000
1E01E000
1E01E000
1E00F000
1E00F000
1E00F000
1E007800
1E007800
1F007C00
FFE03F80
00000000
00080000
001E0000
003E0000
003A0000
000A0000
00060000
000C0000
00080000
00100000
ENDCHAR
STARTCHAR 0157
ENCODING 343
SWIDTH 432 0
DWIDTH 16 0
BBX 15 28 1 -10
BITMAP
043C
3C7E
7C9E
1D1E
1E0E
1C00
1C00
1C00
1C00
1C00
1C00
1C00
1C00
1C00
1C00
1C00
1E00
FF80
0000
0C00
1E00
1F00
1F00
0F00
0200
0400
0400
1000
ENDCHAR
STARTCHAR 0158
ENCODING 344
SWIDTH 702 0
DWIDTH 26 0
BBX 25 34 1 0
BITMAP
04008000
03C30000
01FE0000
00CE0000
007C0000
00000000
00000000
00000000
FFFE0000
FFFFC000
1E01F000
1E00F000
1E00F000
1E007000
1E007800
1E007000
1E007000
1E00F000
1E01E000
1E03C000
1FFFC000
1C0F8000
1E07C000
1E03C000
1E01E000
1E01E000
1E01E000
1E00F000
1E00F000
1E00F000
1E007800
1E007800
1F007C00
FFE03F80
ENDCHAR
STARTCHAR 0159
ENCODING 345
SWIDTH 432 0
DWIDTH 16 0
BBX 15 26 1 0
BITMAP
0004
1808
0FF0
0670
03E0
0000
0000
0000
043C
3C7E
7C9E
1D1E
1E0E
1C00
1C00
1C00
1C00
1C00
1C00
1C00
1C00
1C00
1C00
1C00
1E00
FF80
ENDCHAR
STARTCHAR 015A
ENCODING 346
SWIDTH 540 0
DWIDTH 20 0
BBX 18 36 1 -1
BITMAP
003800
003800
007800
00F800
01E000
010000
020000
000000
010000
0FE180
1FF380
700D80
700F80
E00780
E00380
E00180
F00180
F80000
FC0000
7FC000
3FF000
1FFC00
03FF00
007F80
001FC0
0007C0
8003C0
C001C0
E001C0
E001C0
E001C0
F00380
D80780
DC0F00
83FC00
006000
ENDCHAR
STARTCHAR 015B
ENCODING 347
SWIDTH 405 0
DWIDTH 15 0
BBX 13 27 1 -1
BITMAP
00C0
01E0
01E0
03C0
0780
0700
0800
0000
0000
1E10
3FB0
6070
E070
E030
E010
F010
FC00
3FC0
1FF0
07F0
0078
8078
C038
E038
E030
B070
CFC0
ENDCHAR
STARTCHAR 015C
ENCODING 348
SWIDTH 540 0
DWIDTH 20 0
BBX 18 34 1 -1
BITMAP
03F000
03B000
077800
0C0C00
100200
000000
010000
0FE180
1FF380
700D80
700F80
E00780
E00380
E00180
F00180
F80000
FC0000
7FC000
3FF000
1FFC00
03FF00
007F80
001FC0
0007C0
8003C0
C001C0
E001C0
E001C0
E001C0
F00380
D80780
DC0F00
83FC00
006000
ENDCHAR
STARTCHAR 015D
ENCODING 349
SWIDTH 405 0
DWIDTH 15 0
BBX 13 25 1 -1
BITMAP
0F80
1CC0
1FE0
10F0
6010
0000
0000
1E10
3FB0
6070
E070
E030
E010
F010
FC00
3FC0
1FF0
07F0
0078
8078
C038
E038
E030
B070
CFC0
ENDCHAR
STARTCHAR 015E
ENCODING 350
SWIDTH 540 0
DWIDTH 20 0
BBX 18 34 1 -7
BITMAP
010000
0FE180
1FF380
700D80
700F80
E00780
E00380
E00180
F00180
F80000
FC0000
7F8000
3FF000
1FF800
03FF00
007F80
001FC0
0007C0
8003C0
C001C0
E001C0
E001C0
E001C0
F00380
D80780
DC0F00
83FC00
006000
018000
03E000
01F000
007000
007000
03F000
ENDCHAR
STARTCHAR 015F
ENCODING 351
SWIDTH 405 0
DWIDTH 15 0
BBX 13 25 1 -7
BITMAP
1E10
3FB0
6070
E070
E030
E010
F010
FC00
3FE0
1FF0
07F0
0078
8078
C038
E038
E030
B070
CFC0
0200
0400
0780
0780
01C0
01C0
0F80
ENDCHAR
STARTCHAR 0160
ENCODING 352
SWIDTH 540 0
DWIDTH 20 0
BBX 18 35 1 -1
BITMAP
100200
0F0C00
07B800
037000
03F000
000000
000000
010000
0FE180
1FF380
700D80
700F80
E00780
E00380
E00180
F00180
F80000
FC0000
7FC000
3FF000
1FFC00
03FF00
007F80
001FC0
0007C0
8003C0
C001C0
E001C0
E001C0
E001C0
F00380
D80780
DC0F00
83FC00
006000
ENDCHAR
STARTCHAR 0161
ENCODING 353
SWIDTH 405 0
DWIDTH 15 0
BBX 13 26 1 -1
BITMAP
4000
2030
1EE0
1DC0
0F80
0000
0000
0000
1E10
3FB0
6070
E070
E030
E010
F010
FC00
3FC0
1FF0
07F0
0078
8078
C038
E038
E030
B070
CFC0
ENDCHAR
STARTCHAR 0164
ENCODING 356
SWIDTH 648 0
DWIDTH 24 0
BBX 23 34 1 0
BITMAP
020040
01E180
00F700
006E00
007E00
000000
000000
000000
FFFFFC
FFFFFE
E0781E
E0780E
C0780E
807806
807806
807806
007800
007800
007800
007800
007800
007800
007800
007800
007800
007800
007800
007800
007800
007800
007800
007800
007C00
03FF80
ENDCHAR
STARTCHAR 0165
ENCODING 357
SWIDTH 324 0
DWIDTH 12 0
BBX 12 27 1 0
BITMAP
00F0
01F0
01F0
0050
0430
0430
1C40
1C80
7C00
FFC0
FFC0
3C00
3C00
3C00
3C00
3C00
3C00
3C00
3C00
3C00
3C00
3C00
3C00
3C40
3C40
3F80
1F00
ENDCHAR
STARTCHAR 0166
ENCODING 358
SWIDTH 648 0
DWIDTH 24 0
BBX 23 26 1 0
BITMAP
FFFFFC
FFFFFE
E0781E
E0780E
C0780E
807806
807806
807806
007800
007800
007800
007800
1FFFE0
003800
007800
007800
007800
007800
007800
007800
007800
007800
007800
007800
007C00
03FF80
ENDCHAR
STARTCHAR 0167
ENCODING 359
SWIDTH 324 0
DWIDTH 12 0
BBX 11 23 0 0
BITMAP
0200
0200
0E00
0E00
3E00
7FE0
7FE0
1E00
1E00
1E00
1E00
1E00
FFE0
0E00
1E00
1E00
1E00
1E00
1E00
1E20
1E20
1FC0
0F80
ENDCHAR
STARTCHAR 0168
ENCODING 360
SWIDTH 756 0
DWIDTH 28 0
BBX 26 35 1 -1
BITMAP
00301000
007E1000
00FFF000
009FE000
0003C000
00000000
00000000
00000000
FFE07FC0
FFC07FC0
1E000E00
1E000600
1E000600
1E000600
1E000600
1E000600
1E000600
1E000600
1E000600
1E000600
1E000600
1E000600
1E000600
1E000600
1E000600
1E000E00
1E000E00
1F000C00
1F000C00
1F800C00
07803000
07E07000
03FFF000
007F8000
000C0000
ENDCHAR
STARTCHAR 0169
ENCODING 361
SWIDTH 567 0
DWIDTH 21 0
BBX 18 26 1 0
BITMAP
030080
07C080
0FFF00
09FE00
107E00
000000
000000
000000
0400C0
3C0FC0
FC1FC0
3C07C0
1C07C0
1C03C0
1C03C0
1C03C0
1C03C0
1C03C0
1C03C0
1C03C0
1C03C0
1C03C0
1C0DC0
1E0BC0
1FF3C0
07E3C0
ENDCHAR
STARTCHAR 016A
ENCODING 362
SWIDTH 756 0
DWIDTH 28 0
BBX 26 33 1 -1
BITMAP
00FFE000
00FFE000
00000000
00000000
00000000
00000000
FFE07FC0
FFC07FC0
1E000E00
1E000600
1E000600
1E000600
1E000600
1E000600
1E000600
1E000600
1E000600
1E000600
1E000600
1E000600
1E000600
1E000600
1E000600
1E000E00
1E000E00
1F000C00
1F000C00
1F800C00
07803000
07E07000
03FFF000
007F8000
000C0000
ENDCHAR
STARTCHAR 016B
ENCODING 363
SWIDTH 567 0
DWIDTH 21 0
BBX 18 24 1 0
BITMAP
0FFE00
0FFE00
000000
000000
000000
000000
0400C0
3C0FC0
FC1FC0
3C07C0
1C07C0
1C03C0
1C03C0
1C03C0
1C03C0
1C03C0
1C03C0
1C03C0
1C03C0
1C03C0
1C0DC0
1E0BC0
1FF3C0
07E3C0
ENDCHAR
STARTCHAR 016C
ENCODING 364
SWIDTH 756 0
DWIDTH 28 0
BBX 26 34 1 -1
BITMAP
00404000
0071C000
007FC000
001F0000
000E0000
00000000
00000000
FFE07FC0
FFC07FC0
1E000E00
1E000600
1E000600
1E000600
1E000600
1E000600
1E000600
1E000600
1E000600
1E000600
1E000600
1E000600
1E000600
1E000600
1E000600
1E000E00
1E000E00
1F000C00
1F000C00
1F800C00
07803000
07E07000
03FFF000
007F8000
000C0000
ENDCHAR
STARTCHAR 016D
ENCODING 365
SWIDTH 567 0
DWIDTH 21 0
BBX 18 25 1 0
BITMAP
040200
071E00
03FC00
03FC00
007000
000000
000000
0400C0
3C0FC0
FC1FC0
3C07C0
1C07C0
1C03C0
1C03C0
1C03C0
1C03C0
1C03C0
1C03C0
1C03C0
1C03C0
1C03C0
1C0DC0
1E0BC0
1FF3C0
07E3C0
ENDCHAR
STARTCHAR 016E
ENCODING 366
SWIDTH 756 0
DWIDTH 28 0
BBX 26 36 1 -1
BITMAP
00040000
001F0000
00318000
00318000
00318000
00318000
001F0000
000E0000
00000000
FFE07FC0
FFC07FC0
1E000E00
1E000600
1E000600
1E000600
1E000600
1E000600
1E000600
1E000600
1E000600
1E000600
1E000600
1E000600
1E000600
1E000600
1E000600
1E000E00
1E000E00
1F000C00
1F000C00
1F800C00
07803000
07E07000
03FFF000
007F8000
000C0000
ENDCHAR
STARTCHAR 016F
ENCODING 367
SWIDTH 567 0
DWIDTH 21 0
BBX 18 27 1 0
BITMAP
004000
01F000
039800
030800
030800
030800
01F000
006000
000000
0400C0
3C0FC0
FC1FC0
3C07C0
1C07C0
1C03C0
1C03C0
1C03C0
1C03C0
1C03C0
1C03C0
1C03C0
1C03C0
1C03C0
1C0DC0
1E0BC0
1FF3C0
07E3C0
ENDCHAR
STARTCHAR 0170
ENCODING 368
SWIDTH 756 0
DWIDTH 28 0
BBX 26 36 1 -1
BITMAP
000E3000
000E7800
001E7000
003CF000
0030C000
00410000
00000000
00000000
00000000
FFE07FC0
FFC07FC0
1E000E00
1E000600
1E000600
1E000600
1E000600
1E000600
1E000600
1E000600
1E000600
1E000600
1E000600
1E000600
1E000600
1E000600
1E000600
1E000E00
1E000E00
1F000C00
1F000C00
1F800C00
07803000
07E07000
03FFF000
007F8000
000C0000
ENDCHAR
STARTCHAR 0171
ENCODING 369
SWIDTH 567 0
DWIDTH 21 0
BBX 18 27 1 0
BITMAP
006180
00F3C0
01F7C0
03CF00
038E00
030C00
041000
000000
000000
0400C0
3C0FC0
FC1FC0
3C07C0
1C07C0
1C03C0
1C03C0
1C03C0
1C03C0
1C03C0
1C03C0
1C03C0
1C03C0
1C03C0
1C0DC0
1E0BC0
1FF3C0
07E3C0
ENDCHAR
STARTCHAR 0172
ENCODING 370
SWIDTH 756 0
DWIDTH 28 0
BBX 26 34 1 -8
BITMAP
FFE07FC0
FFC07FC0
1E000E00
1E000600
1E000600
1E000600
1E000600
1E000600
1E000600
1E000600
1E000600
1E000600
1E000600
1E000600
1E000600
1E000600
1E000600
1E000E00
1E000E00
1F000C00
1F000C00
1F800C00
07803800
07E07000
03FFF000
007FC000
000E0000
00080000
00100000
00300000
00700000
00700000
003F0000
00080000
ENDCHAR
STARTCHAR 0173
ENCODING 371
SWIDTH 567 0
DWIDTH 21 0
BBX 20 25 1 -7
BITMAP
0400C0
3C0FC0
FC1FC0
3C07C0
1C07C0
1C03C0
1C03C0
1C03C0
1C03C0
1C03C0
1C03C0
1C03C0
1C03C0
1C03C0
1C0DC0
1E0BC0
1FF3C0
07E3F0
000040
000180
000100
000300
000300
0003F0
0001F0
ENDCHAR
STARTCHAR 0174
ENCODING 372
SWIDTH 1027 0
DWIDTH 38 0
BBX 38 34 0 -1
BITMAP
0000F80000
0000EC0000
0001FE0000
0003030000
0004000000
0000000000
0000000000
FFC7FC03FC
7FC3FC03F8
1E00F00060
1E00F00060
0E00F80040
0F00780080
0F00780180
0F803C0180
07C03C0380
03C03C0380
03C03E0300
01C03E0200
01E06F0200
01E0EF0400
01F0C70C00
00F0C70C00
00F8879C00
0079079800
007903D800
003B03D000
003B01F000
003E01E000
003E00E000
001C00E000
001C00E000
000800C000
0008004000
ENDCHAR
STARTCHAR 0175
ENCODING 373
SWIDTH 783 0
DWIDTH 29 0
BBX 28 25 0 0
BITMAP
0007C000
000EE000
001DE000
0018F000
00600800
00000000
00000000
FFBFE3F0
FFBFE3F0
3E0700E0
1E0700C0
1E078080
0E038080
0F03C100
0F07C100
0785E300
0785E700
03C8E600
01D8F400
01D8F400
01F06800
01F07800
00E03800
00E03800
00403000
ENDCHAR
STARTCHAR 0176
ENCODING 374
SWIDTH 729 0
DWIDTH 27 0
BBX 25 33 1 0
BITMAP
001F0000
00398000
0077C000
00404000
00802000
00000000
00000000
FF807F80
FF807F80
3E000C00
1E000800
1E000800
0F803000
07803000
07C06000
03C04000
03E0C000
00F18000
00F10000
00790000
00760000
003E0000
001E0000
001E0000
001E0000
001E0000
001E0000
001E0000
001E0000
001E0000
001E0000
003E0000
01FFC000
ENDCHAR
STARTCHAR 0177
ENCODING 375
SWIDTH 540 0
DWIDTH 20 0
BBX 21 34 -1 -9
BITMAP
007C00
00E600
00FF00
008780
030080
000000
000000
7FC3F8
7FC3F8
1F00E0
0F0040
0F00C0
070080
070180
078180
03C300
03C200
01C200
01E400
00EC00
00EC00
00F800
00F000
007000
002000
006000
00E000
00C000
00C000
718000
F10000
F30000
7C0000
380000
ENDCHAR
STARTCHAR 0178
ENCODING 376
SWIDTH 729 0
DWIDTH 27 0
BBX 25 33 1 0
BITMAP
00F1E000
00F1E000
00F1E000
00000000
00000000
00000000
00000000
FF807F80
FF807F80
3E000C00
1E000800
1E000800
0F803000
07803000
07C06000
03C04000
03E0C000
00F18000
00F10000
00790000
00760000
003E0000
001E0000
001E0000
001E0000
001E0000
001E0000
001E0000
001E0000
001E0000
001E0000
003E0000
01FFC000
ENDCHAR
STARTCHAR 0179
ENCODING 377
SWIDTH 594 0
DWIDTH 22 0
BBX 20 35 1 0
BITMAP
000C00
001E00
003E00
003C00
007800
00C000
010000
000000
000000
7FFFF0
FFFFE0
F003C0
E003C0
E00780
E00F00
C00F00
C01E00
C03E00
003C00
007800
007000
00F000
01E000
03E000
03C000
078000
078010
0F8010
1E0010
1E0030
1C0030
7C0070
780070
E001E0
FFFFE0
ENDCHAR
STARTCHAR 017A
ENCODING 378
SWIDTH 459 0
DWIDTH 17 0
BBX 15 27 1 0
BITMAP
0030
0078
00F8
01F0
01C0
0180
0600
0000
0000
FFFE
FFFE
E03C
E078
E078
C0F0
C1F0
81E0
03C0
0380
0780
0F02
1E02
1E02
3C06
780E
E01E
FFFE
ENDCHAR
STARTCHAR 017B
ENCODING 379
SWIDTH 594 0
DWIDTH 22 0
BBX 20 33 1 0
BITMAP
007000
007000
007000
000000
000000
000000
000000
7FFFF0
FFFFE0
F003C0
E003C0
E00780
E00F00
C00F00
C01E00
C03E00
003C00
007800
007000
00F000
01E000
03E000
03C000
078000
078010
0F8010
1E0010
1E0030
1C0030
7C0070
780070
E001E0
FFFFE0
ENDCHAR
STARTCHAR 017C
ENCODING 380
SWIDTH 459 0
DWIDTH 17 0
BBX 15 25 1 0
BITMAP
03C0
03C0
03C0
03C0
0000
0000
0000
FFFE
FFFE
E03C
E078
E078
C0F0
C1F0
81E0
03C0
0380
0780
0F02
1E02
1E02
3C06
780E
E01E
FFFE
ENDCHAR
STARTCHAR 017D
ENCODING 381
SWIDTH 594 0
DWIDTH 22 0
BBX 20 34 1 0
BITMAP
040100
038600
03EE00
019C00
00F800
000000
000000
000000
7FFFF0
FFFFE0
F003C0
E003C0
E00780
E00F00
C00F00
C01E00
C03E00
003C00
007800
007000
00F000
01E000
03E000
03C000
078000
078010
0F8010
1E0010
1E0030
1C0030
7C0070
780070
E001E0
FFFFE0
ENDCHAR
STARTCHAR 017E
ENCODING 382
SWIDTH 459 0
DWIDTH 17 0
BBX 15 26 1 0
BITMAP
0004
1808
0FF0
0670
03E0
0000
0000
0000
FFFE
FFFE
E03C
E078
E078
C0F0
C1F0
81E0
03C0
0380
0780
0F02
1E02
1E02
3C06
780E
E01E
FFFE
ENDCHAR
STARTCHAR 0218
ENCODING 536
SWIDTH 540 0
DWIDTH 20 0
BBX 18 37 1 -10
BITMAP
010000
0FE180
1FF380
700D80
700F80
E00780
E00380
E00180
F00180
F80000
FC0000
7FC000
3FF000
1FFC00
03FF00
007F80
001FC0
0007C0
8003C0
C001C0
E001C0
E001C0
E001C0
F00380
D80780
DC0F00
83FC00
006000
004000
00F000
01F000
01D000
005000
003000
006000
004000
008000
ENDCHAR
STARTCHAR 0219
ENCODING 537
SWIDTH 405 0
DWIDTH 15 0
BBX 13 28 1 -10
BITMAP
1E10
3FB0
6070
E070
E030
E010
F010
FC00
3FC0
1FF0
07F0
0078
8078
C038
E038
E030
B070
CFC0
0000
0200
0780
0F80
0E80
0280
0180
0300
0200
0400
ENDCHAR
STARTCHAR 021A
ENCODING 538
SWIDTH 648 0
DWIDTH 24 0
BBX 23 36 1 -10
BITMAP
FFFFFC
FFFFFE
E0781E
E0780E
C0780E
807806
807806
807806
007800
007800
007800
007800
007800
007800
007800
007800
007800
007800
007800
007800
007800
007800
007800
007800
007C00
03FF80
000000
001000
003C00
007E00
007600
001600
000C00
000800
000000
002000
ENDCHAR
STARTCHAR 021B
ENCODING 539
SWIDTH 324 0
DWIDTH 12 0
BBX 10 33 1 -10
BITMAP
0400
0400
1C00
1C00
7C00
FFC0
FFC0
3C00
3C00
3C00
3C00
3C00
3C00
3C00
3C00
3C00
3C00
3C00
3C00
3C40
3C40
3F80
1F00
0000
0400
0F00
1F80
1D80
0580
0300
0200
0000
0800
ENDCHAR
STARTCHAR 02C6
ENCODING 710
SWIDTH 513 0
DWIDTH 19 0
BBX 11 5 4 20
BITMAP
1F00
3B80
7780
63C0
8020
ENDCHAR
STARTCHAR 02C7
ENCODING 711
SWIDTH 513 0
DWIDTH 19 0
BBX 11 5 4 21
BITMAP
0020
C040
7F80
3380
1F00
ENDCHAR
STARTCHAR 02D8
ENCODING 728
SWIDTH 513 0
DWIDTH 19 0
BBX 10 5 4 20
BITMAP
8040
E3C0
7F80
7F80
0E00
ENDCHAR
STARTCHAR 02D9
ENCODING 729
SWIDTH 513 0
DWIDTH 19 0
BBX 4 4 7 21
BITMAP
F0
F0
F0
F0
ENDCHAR
STARTCHAR 02DA
ENCODING 730
SWIDTH 513 0
DWIDTH 19 0
BBX 7 8 6 19
BITMAP
10
7C
CE
86
86
86
7C
30
ENDCHAR
STARTCHAR 02DB
ENCODING 731
SWIDTH 513 0
DWIDTH 19 0
BBX 6 8 6 -8
BITMAP
08
70
60
C0
C0
C0
FC
30
ENDCHAR
STARTCHAR 02DC
ENCODING 732
SWIDTH 513 0
DWIDTH 19 0
BBX 13 5 3 21
BITMAP
1000
7E08
7FF8
8FF0
87E0
ENDCHAR
STARTCHAR 02DD
ENCODING 733
SWIDTH 513 0
DWIDTH 19 0
BBX 13 7 4 20
BITMAP
0C30
1E78
1E78
3CF0
30C0
6180
8200
ENDCHAR
STARTCHAR 1E80
ENCODING 7808
SWIDTH 1027 0
DWIDTH 38 0
BBX 38 36 0 -1
BITMAP
0003800000
0003C00000
0003C00000
0003E00000
0000700000
0000100000
0000080000
0000000000
0000000000
FFC7FC03FC
7FC3FC03F8
1E00F00060
1E00F00060
0E00F80040
0F00780080
0F00780180
0F803C0180
07C03C0380
03C03C0380
03C03E0300
01C03E0200
01E06F0200
01E0EF0400
01F0C70C00
00F0C70C00
00F8879C00
0079079800
007903D800
003B03D000
003B01F000
003E01E000
003E00E000
001C00E000
001C00E000
000800C000
0008004000
ENDCHAR
STARTCHAR 1E81
ENCODING 7809
SWIDTH 783 0
DWIDTH 29 0
BBX 28 27 0 0
BITMAP
00180000
003C0000
003C0000
001E0000
00030000
00018000
00000000
00000000
00000000
FFBFE3F0
FFBFE3F0
3E0700E0
1E0700C0
1E078080
0E038080
0F03C100
0F07C100
0785E300
0785E700
03C8E600
01D8F400
01D8F400
01F06800
01F07800
00E03800
00E03800
00403000
ENDCHAR
STARTCHAR 1E82
ENCODING 7810
SWIDTH 1027 0
DWIDTH 38 0
BBX 38 36 0 -1
BITMAP
00000E0000
00000E0000
00001E0000
00003E0000
0000780000
0000400000
0000800000
0000000000
0000000000
FFC7FC03FC
7FC3FC03F8
1E00F00060
1E00F00060
0E00F80040
0F00780080
0F00780180
0F803C0180
07C03C0380
03C03C0380
03C03E0300
01C03E0200
01E06F0200
01E0EF0400
01F0C70C00
00F0C70C00
00F8879C00
0079079800
007903D800
003B03D000
003B01F000
003E01E000
003E00E000
001C00E000
001C00E000
000800C000
0008004000
ENDCHAR
STARTCHAR 1E83
ENCODING 7811
SWIDTH 783 0
DWIDTH 29 0
BBX 28 27 0 0
BITMAP
00006000
0000F000
0001F000
0003E000
00038000
00030000
000C0000
00000000
00000000
FFBFE3F0
FFBFE3F0
3E0700E0
1E0700C0
1E078080
0E038080
0F03C100
0F07C100
0785E300
0785E700
03C8E600
01D8F400
01D8F400
01F06800
01F07800
00E03800
00E03800
00403000
ENDCHAR
STARTCHAR 1E84
ENCODING 7812
SWIDTH 1027 0
DWIDTH 38 0
BBX 38 34 0 -1
BITMAP
0007870000
0007870000
0007870000
0000000000
0000000000
0000000000
0000000000
FFC7FC03FC
7FC3FC03F8
1E00F00060
1E00F00060
0E00F80040
0F00780080
0F00780180
0F803C0180
07C03C0380
03C03C0380
03C03E0300
01C03E0200
01E06F0200
01E0EF0400
01F0C70C00
00F0C70C00
00F8879C00
0079079800
007903D800
003B03D000
003B01F000
003E01E000
003E00E000
001C00E000
001C00E000
000800C000
0008004000
ENDCHAR
STARTCHAR 1E85
ENCODING 7813
SWIDTH 783 0
DWIDTH 29 0
BBX 28 25 0 0
BITMAP
00387800
00387800
00387800
00387800
00000000
00000000
00000000
FFBFE3F0
FFBFE3F0
3E0700E0
1E0700C0
1E078080
0E038080
0F03C100
0F07C100
0785E300
0785E700
03C8E600
01D8F400
01D8F400
01F06800
01F07800
00E03800
00E03800
00403000
ENDCHAR
STARTCHAR 1EF2
ENCODING 7922
SWIDTH 729 0
DWIDTH 27 0
BBX 25 35 1 0
BITMAP
00600000
00F80000
00F80000
00780000
000C0000
00060000
00010000
00000000
00000000
FF807F80
FF807F80
3E000C00
1E000800
1E000800
0F803000
07803000
07C06000
03C04000
03E0C000
00F18000
00F10000
00790000
00760000
003E0000
001E0000
001E0000
001E0000
001E0000
001E0000
001E0000
001E0000
001E0000
001E0000
003E0000
01FFC000
ENDCHAR
STARTCHAR 1EF3
ENCODING 7923
SWIDTH 540 0
DWIDTH 20 0
BBX 21 36 -1 -9
BITMAP
01C000
01E000
01E000
01F000
003000
000800
000400
000000
000000
7FC3F8
7FC3F8
1F00E0
0F0040
0F00C0
070080
070180
078180
03C300
03C200
01C200
01E400
00EC00
00EC00
00F800
00F000
007000
002000
006000
00E000
00C000
00C000
718000
F10000
F30000
7C0000
380000
ENDCHAR
STARTCHAR 2013
ENCODING 8211
SWIDTH 513 0
DWIDTH 19 0
BBX 17 2 1 11
BITMAP
FFFF80
FFFF80
ENDCHAR
STARTCHAR 2014
ENCODING 8212
SWIDTH 648 0
DWIDTH 24 0
BBX 22 2 1 11
BITMAP
FFFFFC
FFFFFC
ENDCHAR
STARTCHAR 2018
ENCODING 8216
SWIDTH 243 0
DWIDTH 9 0
BBX 5 9 2 17
BITMAP
08
30
40
40
C0
F8
F8
F8
78
ENDCHAR
STARTCHAR 2019
ENCODING 8217
SWIDTH 243 0
DWIDTH 9 0
BBX 5 9 2 18
BITMAP
F0
F8
F8
58
18
10
20
60
80
ENDCHAR
STARTCHAR 201A
ENCODING 8218
SWIDTH 243 0
DWIDTH 9 0
BBX 6 9 1 -5
BITMAP
78
7C
7C
2C
0C
18
10
20
C0
ENDCHAR
STARTCHAR 201C
ENCODING 8220
SWIDTH 405 0
DWIDTH 15 0
BBX 11 9 2 17
BITMAP
0820
30C0
4100
4100
C300
FBC0
FBE0
FBE0
79C0
ENDCHAR
STARTCHAR 201D
ENCODING 8221
SWIDTH 405 0
DWIDTH 15 0
BBX 12 9 1 18
BITMAP
79E0
7FF0
7FF0
2DB0
0C30
0820
1840
30C0
C100
ENDCHAR
STARTCHAR 201E
ENCODING 8222
SWIDTH 405 0
DWIDTH 15 0
BBX 12 9 1 -4
BITMAP
79E0
7FF0
7FF0
2DB0
0C30
0820
1840
1040
E180
ENDCHAR
STARTCHAR 2020
ENCODING 8224
SWIDTH 567 0
DWIDTH 21 0
BBX 17 29 2 -3
BITMAP
008000
01C000
01C000
008000
008000
008000
008000
FEBF80
F89F00
008000
008000
008000
01C000
01C000
03C000
01C000
01C000
01C000
01C000
01C000
008000
008000
008000
008000
008000
008000
008000
008000
008000
ENDCHAR
STARTCHAR 2021
ENCODING 8225
SWIDTH 567 0
DWIDTH 21 0
BBX 17 35 2 -9
BITMAP
008000
01C000
01C000
008000
008000
008000
008000
FEBF80
F89F00
008000
00C000
01C000
03E000
01C000
008000
008000
008000
008000
008000
008000
01C000
01C000
01C000
01C000
008000
708700
FEBF80
608300
008000
008000
008000
00C000
01C000
01C000
008000
ENDCHAR
STARTCHAR 2022
ENCODING 8226
SWIDTH 270 0
DWIDTH 10 0
BBX 6 6 2 10
BITMAP
FC
FC
FC
FC
FC
FC
ENDCHAR
STARTCHAR 2026
ENCODING 8230
SWIDTH 729 0
DWIDTH 27 0
BBX 22 4 2 0
BITMAP
F87C3C
F87C3C
F87C3C
F87C3C
ENDCHAR
STARTCHAR 2039
ENCODING 8249
SWIDTH 378 0
DWIDTH 14 0
BBX 9 17 2 0
BITMAP
0080
0100
0300
0600
0C00
1C00
3800
7800
F800
7800
3C00
1C00
0E00
0700
0300
0100
0080
ENDCHAR
STARTCHAR 203A
ENCODING 8250
SWIDTH 378 0
DWIDTH 14 0
BBX 9 17 3 0
BITMAP
8000
4000
6000
7000
3800
1C00
1E00
0F00
0F80
0F00
0E00
1C00
1800
3000
6000
4000
8000
ENDCHAR
STARTCHAR 2044
ENCODING 8260
SWIDTH 567 0
DWIDTH 21 0
BBX 19 26 1 0
BITMAP
000060
000040
0001C0
000180
000100
000200
000600
000E00
000800
000800
003000
003000
006000
004000
008000
018000
030000
030000
020000
040000
0C0000
180000
100000
300000
200000
E00000
ENDCHAR
STARTCHAR 20AC
ENCODING 8364
SWIDTH 648 0
DWIDTH 24 0
BBX 21 26 1 0
BITMAP
007F08
00FFD8
03C0E8
038068
078078
0F0018
0E0018
1E0018
1C0008
1C0000
1C0000
FFFFC0
FFFFC0
1C0000
FFFF80
FFFF00
1E0000
1E0000
1E0000
1F0008
0F8008
0F8010
03C030
03E060
01F1C0
007F80
ENDCHAR
STARTCHAR 2122
ENCODING 8482
SWIDTH 864 0
DWIDTH 32 0
BBX 30 14 1 12
BITMAP
FFFFC03C
EC73C078
8E12C078
8E12E0F8
0E0260B8
0E027138
0E027138
0E027138
0E023A38
0E021A38
0E021C38
0E010C38
0E010C38
1F8FC8FC
ENDCHAR
STARTCHAR 2157
ENCODING 8535
SWIDTH 729 0
DWIDTH 27 0
BBX 26 26 1 0
BITMAP
FF800800
FF800800
C2003000
84003000
04006000
1C004000
1F00C000
3F81C000
03810000
03810000
E3860000
C3860180
C38C7F80
3C085F80
00104000
00304000
00604000
00407E00
00407F00
01800380
018001C0
030001C0
0200C180
0400C180
0400C380
18003E00
ENDCHAR
STARTCHAR 2212
ENCODING 8722
SWIDTH 513 0
DWIDTH 19 0
BBX 17 2 1 11
BITMAP
FFFF80
FFFF80
ENDCHAR
STARTCHAR F6BE
ENCODING 63166
SWIDTH 270 0
DWIDTH 10 0
BBX 10 27 -3 -9
BITMAP
0040
07C0
0FC0
01C0
01C0
01C0
01C0
01C0
01C0
01C0
01C0
01C0
01C0
01C0
01C0
01C0
01C0
01C0
01C0
01C0
01C0
01C0
E1C0
F1C0
F1C0
3F00
1E00
ENDCHAR
STARTCHAR F6C3
ENCODING 63171
SWIDTH 513 0
DWIDTH 19 0
BBX 5 9 7 -10
BITMAP
60
F0
F8
F8
78
10
20
20
80
ENDCHAR
STARTCHAR FB01
ENCODING 64257
SWIDTH 621 0
DWIDTH 23 0
BBX 22 27 0 0
BITMAP
00F800
01FC00
0306E0
0E0FE0
0E0EE0
0E06E0
0E0000
0E0000
1E0000
7FE020
7FE1E0
1E03E0
1E00E0
1E00E0
1E00E0
1E00E0
1E00E0
1E00E0
1E00E0
1E00E0
1E00E0
1E00E0
1E00E0
1E00E0
1E00E0
1E00F0
FFC7FC
ENDCHAR
STARTCHAR FB02
ENCODING 64258
SWIDTH 594 0
DWIDTH 22 0
BBX 21 27 0 0
BITMAP
00F860
01FFE0
0307E0
0E0FE0
0E0EE0
0E06E0
0E00E0
0E00E0
1E00E0
7FE0E0
7FE0E0
1E00E0
1E00E0
1E00E0
1E00E0
1E00E0
1E00E0
1E00E0
1E00E0
1E00E0
1E00E0
1E00E0
1E00E0
1E00E0
1E00E0
1E01E0
FFC7F8
ENDCHAR
ENDFONT
